<?xml version="1.0" encoding="UTF-8"?>
<svg version="1.1" xmlns="http://www.w3.org/2000/svg" width="2480" height="2280">
<path d="M0 0 C1.94882224 -0.00697877 3.89764426 -0.01401974 5.84646606 -0.02111816 C12.03827193 -0.04039201 18.2300424 -0.0452936 24.421875 -0.046875 C25.4753437 -0.04746414 26.52881241 -0.04805328 27.61420441 -0.04866028 C58.07199803 -0.0606906 88.38320277 0.13176223 118.73260498 2.97851562 C121.21029377 3.20666262 123.68889514 3.41826418 126.16845703 3.625 C213.40960755 10.93004251 299.74553874 29.43242536 453.171875 83.203125 C453.82826965 83.47469421 454.48466431 83.74626343 455.16094971 84.02606201 C498.70529635 102.08029735 541.34942886 122.62323681 582.171875 146.203125 C582.74329224 146.53308472 583.31470947 146.86304443 583.90344238 147.20300293 C605.89676196 159.91128359 627.33172504 173.26264659 648.484375 187.328125 C649.25459991 187.83973175 650.02482483 188.3513385 650.81838989 188.87844849 C660.7379914 195.47419338 670.51809304 202.2246182 680.171875 209.203125 C681.72836997 210.31361753 683.28555406 211.42314547 684.84375 212.53125 C694.78415194 219.63866114 704.49040416 227.00461227 714.08935547 234.56591797 C716.03979566 236.09928865 717.99680064 237.62370735 719.95703125 239.14453125 C726.80994482 244.47197709 733.49775668 249.95635672 740.09765625 255.59375 C742.87920588 257.96581535 745.70536161 260.27805212 748.546875 262.578125 C758.80166016 270.93719296 768.71431277 279.69011343 778.42578125 288.671875 C780.90421513 290.9564058 783.40633657 293.20964979 785.921875 295.453125 C798.62646782 306.88191486 810.88281221 318.74995686 822.94799805 330.84887695 C825.26040223 333.16671338 827.57820398 335.47905804 829.89648438 337.79101562 C831.39615457 339.29134564 832.89551506 340.7919853 834.39453125 342.29296875 C835.07379166 342.97020493 835.75305206 343.6474411 836.45289612 344.34519958 C840.32121849 348.23232311 844.00890624 352.22030393 847.57225037 356.38941956 C849.20415916 358.23972981 850.91055185 359.97626735 852.671875 361.703125 C855.70782425 364.69184837 858.51696159 367.82018979 861.296875 371.046875 C863.34546594 373.40275458 865.44390502 375.7081996 867.546875 378.015625 C871.40209886 382.28622651 875.04770015 386.69086169 878.6640625 391.1640625 C881.5601938 394.67370448 884.54868079 398.09331097 887.546875 401.515625 C893.19526242 407.98273795 898.52903087 414.64449863 903.78613281 421.43066406 C905.69837423 423.87655425 907.64876356 426.29076798 909.59912109 428.70629883 C920.98126209 442.81345613 931.64577254 457.45058631 942.171875 472.203125 C942.99510254 473.35458008 942.99510254 473.35458008 943.83496094 474.52929688 C963.75463694 502.46103171 981.94996107 531.54345355 999.171875 561.203125 C999.68153809 562.0806543 1000.19120117 562.95818359 1000.71630859 563.86230469 C1041.80697701 634.92174978 1073.92915709 710.18159635 1112.61706543 837.09393311 C1113.12505953 839.02514897 1113.64075411 840.95433502 1114.15722656 842.88330078 C1131.71824774 908.53171019 1141.24395393 976.0922778 1146.375 1043.75390625 C1146.441427 1044.6141037 1146.507854 1045.47430115 1146.57629395 1046.36056519 C1147.79738408 1062.91416498 1148.33792974 1079.43564796 1148.375 1096.03125 C1148.38197877 1097.98007224 1148.38901974 1099.92889426 1148.39611816 1101.87771606 C1148.41539201 1108.06952193 1148.4202936 1114.2612924 1148.421875 1120.453125 C1148.42246414 1121.5065937 1148.42305328 1122.56006241 1148.42366028 1123.64545441 C1148.4356906 1154.10324803 1148.24323777 1184.41445277 1145.39648438 1214.76385498 C1145.16833738 1217.24154377 1144.95673582 1219.72014514 1144.75 1222.19970703 C1137.38107558 1310.20377317 1118.56740813 1396.92689646 1065.171875 1549.203125 C1064.8695697 1549.93666199 1064.5672644 1550.67019897 1064.25579834 1551.42596436 C1046.30230179 1594.927603 1025.84362781 1637.51379982 1002.171875 1678.203125 C1001.49957646 1679.3644324 1000.82755116 1680.52589802 1000.15576172 1681.6875 C987.77217965 1703.08661322 974.73716433 1723.92721061 961.046875 1744.515625 C960.53526825 1745.28584991 960.0236615 1746.05607483 959.49655151 1746.84963989 C952.90080662 1756.7692414 946.1503818 1766.54934304 939.171875 1776.203125 C938.06138247 1777.75961997 936.95185453 1779.31680406 935.84375 1780.875 C928.73633886 1790.81540194 921.37038773 1800.52165416 913.80908203 1810.12060547 C912.27571135 1812.07104566 910.75129265 1814.02805064 909.23046875 1815.98828125 C903.90302291 1822.84119482 898.41864328 1829.52900668 892.78125 1836.12890625 C890.40918465 1838.91045588 888.09694788 1841.73661161 885.796875 1844.578125 C877.40724986 1854.87039727 868.61633158 1864.80828498 859.6015625 1874.5546875 C857.50128365 1876.84405897 855.45022312 1879.16274118 853.421875 1881.515625 C850.74886298 1884.60231746 847.92437149 1887.4750761 845.00990295 1890.33265686 C843.25362717 1892.11992995 841.62324522 1893.96272058 839.99780273 1895.86889648 C836.00619628 1900.45720774 831.76161473 1904.75751429 827.45703125 1909.05078125 C826.64245956 1909.86630966 825.82788788 1910.68183807 824.9886322 1911.52207947 C823.27628307 1913.23510508 821.56268658 1914.94688465 819.84790039 1916.6574707 C817.24185485 1919.25816052 814.64118978 1921.86414456 812.04101562 1924.47070312 C810.36750801 1926.14354986 808.69369018 1927.81608634 807.01953125 1929.48828125 C806.2515773 1930.25825943 805.48362335 1931.02823761 804.69239807 1931.82154846 C800.57315496 1935.92318761 796.37644185 1939.86416027 791.95262146 1943.63645935 C790.11192416 1945.25586857 788.38794195 1946.95288491 786.671875 1948.703125 C783.68315163 1951.73907425 780.55481021 1954.54821159 777.328125 1957.328125 C774.97224542 1959.37671594 772.6668004 1961.47515502 770.359375 1963.578125 C766.08877349 1967.43334886 761.68413831 1971.07895015 757.2109375 1974.6953125 C753.70129552 1977.5914438 750.28168903 1980.57993079 746.859375 1983.578125 C740.39226205 1989.22651242 733.73050137 1994.56028087 726.94433594 1999.81738281 C724.49844575 2001.72962423 722.08423202 2003.68001356 719.66870117 2005.63037109 C705.56154387 2017.01251209 690.92441369 2027.67702254 676.171875 2038.203125 C675.02041992 2039.02635254 675.02041992 2039.02635254 673.84570312 2039.86621094 C645.91396829 2059.78588694 616.83154645 2077.98121107 587.171875 2095.203125 C586.2943457 2095.71278809 585.41681641 2096.22245117 584.51269531 2096.74755859 C513.4422948 2137.84456207 438.16300513 2169.98996504 311.64025879 2208.56243896 C309.18609478 2209.19943416 306.73319495 2209.8411496 304.28027344 2210.48291016 C222.57591667 2231.75802545 136.86251294 2244.21745704 52.34375 2244.40625 C50.39492776 2244.41322877 48.44610574 2244.42026974 46.49728394 2244.42736816 C40.30547807 2244.44664201 34.1137076 2244.4515436 27.921875 2244.453125 C26.8684063 2244.45371414 25.81493759 2244.45430328 24.72954559 2244.45491028 C-5.72824803 2244.4669406 -36.03945277 2244.27448777 -66.38885498 2241.42773438 C-68.86654377 2241.19958738 -71.34514514 2240.98798582 -73.82470703 2240.78125 C-161.06585755 2233.47620749 -247.40178874 2214.97382464 -400.828125 2161.203125 C-401.48451965 2160.93155579 -402.14091431 2160.65998657 -402.81719971 2160.38018799 C-446.36154635 2142.32595265 -489.00567886 2121.78301319 -529.828125 2098.203125 C-530.39954224 2097.87316528 -530.97095947 2097.54320557 -531.55969238 2097.20324707 C-553.55301196 2084.49496641 -574.98797504 2071.14360341 -596.140625 2057.078125 C-596.91084991 2056.56651825 -597.68107483 2056.0549115 -598.47463989 2055.52780151 C-608.3942414 2048.93205662 -618.17434304 2042.1816318 -627.828125 2035.203125 C-629.38461997 2034.09263247 -630.94180406 2032.98310453 -632.5 2031.875 C-642.44040194 2024.76758886 -652.14665416 2017.40163773 -661.74560547 2009.84033203 C-663.69604566 2008.30696135 -665.65305064 2006.78254265 -667.61328125 2005.26171875 C-674.46619482 1999.93427291 -681.15400668 1994.44989328 -687.75390625 1988.8125 C-690.53545588 1986.44043465 -693.36161161 1984.12819788 -696.203125 1981.828125 C-706.49539727 1973.43849986 -716.43328498 1964.64758158 -726.1796875 1955.6328125 C-728.46905897 1953.53253365 -730.78774118 1951.48147312 -733.140625 1949.453125 C-736.22731746 1946.78011298 -739.1000761 1943.95562149 -741.95765686 1941.04115295 C-743.74492995 1939.28487717 -745.58772058 1937.65449522 -747.49389648 1936.02905273 C-752.08220774 1932.03744628 -756.38251429 1927.79286473 -760.67578125 1923.48828125 C-761.49130966 1922.67370956 -762.30683807 1921.85913788 -763.14707947 1921.0198822 C-764.86010508 1919.30753307 -766.57188465 1917.59393658 -768.2824707 1915.87915039 C-770.88316052 1913.27310485 -773.48914456 1910.67243978 -776.09570312 1908.07226562 C-777.76854986 1906.39875801 -779.44108634 1904.72494018 -781.11328125 1903.05078125 C-781.88325943 1902.2828273 -782.65323761 1901.51487335 -783.44654846 1900.72364807 C-787.54818761 1896.60440496 -791.48916027 1892.40769185 -795.26145935 1887.98387146 C-796.88086857 1886.14317416 -798.57788491 1884.41919195 -800.328125 1882.703125 C-803.36407425 1879.71440163 -806.17321159 1876.58606021 -808.953125 1873.359375 C-811.00171594 1871.00349542 -813.10015502 1868.6980504 -815.203125 1866.390625 C-819.05834886 1862.12002349 -822.70395015 1857.71538831 -826.3203125 1853.2421875 C-829.2164438 1849.73254552 -832.20493079 1846.31293903 -835.203125 1842.890625 C-840.85151242 1836.42351205 -846.18528087 1829.76175137 -851.44238281 1822.97558594 C-853.35462423 1820.52969575 -855.30501356 1818.11548202 -857.25537109 1815.69995117 C-868.63751209 1801.59279387 -879.30202254 1786.95566369 -889.828125 1772.203125 C-890.37694336 1771.43548828 -890.92576172 1770.66785156 -891.49121094 1769.87695312 C-906.45732044 1748.89120005 -920.49012799 1727.25707901 -933.828125 1705.203125 C-934.43978516 1704.19233887 -935.05144531 1703.18155273 -935.68164062 1702.14013672 C-978.72267225 1630.77637599 -1013.15491245 1555.40669953 -1096.03125 1148.375 C-1096.03822877 1146.42617776 -1096.04526974 1144.47735574 -1096.05236816 1142.52853394 C-1096.07164201 1136.33672807 -1096.0765436 1130.1449576 -1096.078125 1123.953125 C-1096.07871414 1122.8996563 -1096.07930328 1121.84618759 -1096.07991028 1120.76079559 C-1096.0919406 1090.30300197 -1095.89948777 1059.99179723 -1093.05273438 1029.64239502 C-1092.82458738 1027.16470623 -1092.61298582 1024.68610486 -1092.40625 1022.20654297 C-1085.10120749 934.96539245 -1066.59882464 848.62946126 -1012.828125 695.203125 C-1012.55655579 694.54673035 -1012.28498657 693.89033569 -1012.00518799 693.21405029 C-993.95095265 649.66970365 -973.40801319 607.02557114 -949.828125 566.203125 C-949.33318542 565.34599915 -949.33318542 565.34599915 -948.82824707 564.47155762 C-936.11996641 542.47823804 -922.76860341 521.04327496 -908.703125 499.890625 C-908.19151825 499.12040009 -907.6799115 498.35017517 -907.15280151 497.55661011 C-900.55705662 487.6370086 -893.8066318 477.85690696 -886.828125 468.203125 C-885.71763247 466.64663003 -884.60810453 465.08944594 -883.5 463.53125 C-876.39258886 453.59084806 -869.02663773 443.88459584 -861.46533203 434.28564453 C-859.93196135 432.33520434 -858.40754265 430.37819936 -856.88671875 428.41796875 C-851.55927291 421.56505518 -846.07489328 414.87724332 -840.4375 408.27734375 C-838.06543465 405.49579412 -835.75319788 402.66963839 -833.453125 399.828125 C-825.09405704 389.57333984 -816.34113657 379.66068723 -807.359375 369.94921875 C-805.0748442 367.47078487 -802.82160021 364.96866343 -800.578125 362.453125 C-789.14933514 349.74853218 -777.28129314 337.49218779 -765.18237305 325.42700195 C-762.86453662 323.11459777 -760.55219196 320.79679602 -758.24023438 318.47851562 C-756.73990436 316.97884543 -755.2392647 315.47948494 -753.73828125 313.98046875 C-752.72242699 312.96157814 -752.72242699 312.96157814 -751.68605042 311.92210388 C-747.77831575 308.03327006 -743.76073626 304.33233548 -739.58802795 300.72944641 C-737.57661902 298.98499993 -735.63528533 297.17982947 -733.71484375 295.3359375 C-733.02986816 294.68254395 -732.34489258 294.02915039 -731.63916016 293.35595703 C-730.93839355 292.68677246 -730.23762695 292.01758789 -729.515625 291.328125 C-723.96403503 286.06104649 -718.35928952 281.03453367 -712.3671875 276.2734375 C-709.59176514 274.0104008 -706.9619411 271.62920349 -704.328125 269.203125 C-699.51768228 264.78564802 -694.54842112 260.63372912 -689.46533203 256.53564453 C-687.60424432 255.02090896 -685.76055294 253.48640715 -683.91796875 251.94921875 C-675.02535855 244.5418001 -665.96351419 237.45535078 -656.66113281 230.57177734 C-653.89567 228.50688862 -651.17689345 226.38524932 -648.453125 224.265625 C-640.39954006 218.03253418 -632.12084642 212.11221842 -623.828125 206.203125 C-623.0561377 205.65140625 -622.28415039 205.0996875 -621.48876953 204.53125 C-593.56176742 184.6141379 -564.48316225 166.42234808 -534.828125 149.203125 C-533.9505957 148.69346191 -533.07306641 148.18379883 -532.16894531 147.65869141 C-484.274821 119.96354717 -434.37564407 95.86239876 -382.75622559 75.9473877 C-380.80689729 75.19493093 -378.859016 74.43880589 -376.91113281 73.68261719 C-338.46958334 58.80403034 -299.16693207 46.12139601 -259.25366211 35.82952881 C-256.82220253 35.2015955 -254.39247223 34.56728539 -251.96289062 33.93212891 C-170.3220914 12.6757038 -84.4612676 0.18866453 0 0 Z " fill="#912860" transform="translate(1252.828125,11.796875)"/>
<path d="M0 0 C2.65867906 -0.00130992 5.31733293 -0.00381392 7.97600693 -0.0077675 C13.73236164 -0.0139497 19.48862275 -0.00912475 25.24496651 0.00314713 C33.8042564 0.02134351 42.36348799 0.02214611 50.9227937 0.01952116 C65.32482426 0.01559027 79.72681336 0.02556245 94.12883186 0.04357338 C108.38002796 0.06134985 122.63120676 0.07287634 136.88241386 0.07613182 C137.76989358 0.07633804 138.65737329 0.07654426 139.57174632 0.07675673 C144.0791628 0.07777178 148.58657929 0.07867591 153.0939958 0.07953735 C184.98535932 0.08583159 216.87670031 0.10602411 248.76805115 0.13444519 C279.74200827 0.16201676 310.71595921 0.18325864 341.68992615 0.19596863 C342.64538004 0.19636321 343.60083394 0.19675778 344.58524098 0.19716432 C354.18066675 0.20112002 363.77609257 0.20494744 373.37151842 0.2086809 C392.91693994 0.21628869 412.46236105 0.22475244 432.00778198 0.23373413 C433.35565869 0.23435194 433.35565869 0.23435194 434.73076523 0.23498222 C494.69413098 0.26256476 554.6574842 0.31009808 614.62083435 0.36076355 C614.69126607 10.45549685 614.74410716 20.55016892 614.77627087 30.64510059 C614.7917308 35.33581209 614.81259423 40.02635197 614.84715271 44.71696472 C614.99362265 65.14317896 614.89687732 85.16643394 612.01991272 105.4349823 C611.42403901 109.80353813 610.94804714 114.18412728 610.46658325 118.56654358 C609.5055703 127.2017066 608.36090692 135.66098671 606.3669281 144.1224823 C605.51795373 147.80729776 604.84800678 151.5146693 604.18333435 155.23576355 C602.81675493 162.72169232 601.05489248 170.07152187 599.12376404 177.43009949 C598.64422147 179.27098427 598.18283486 181.11657019 597.72239685 182.96232605 C595.13360181 193.11836813 591.8344863 202.99718695 588.4528656 212.91227722 C587.63364032 215.32307837 586.82631988 217.73753045 586.0231781 220.1537323 C583.40005395 228.03263707 580.64416692 235.599189 576.8278656 242.9896698 C575.74770083 245.11154687 574.75908264 247.24114963 573.80833435 249.42326355 C570.58234327 256.81225557 567.06800009 264.07318743 563.62083435 271.36076355 C562.96083435 271.36076355 562.30083435 271.36076355 561.62083435 271.36076355 C561.37333435 272.41263855 561.12583435 273.46451355 560.87083435 274.54826355 C559.81908414 278.23306673 558.08516617 280.40356537 555.62083435 283.36076355 C554.82616134 284.74316347 554.057679 286.14077738 553.30833435 287.54826355 C550.47126951 292.78126425 547.1097077 297.54554165 543.62083435 302.36076355 C542.9556781 303.2837323 542.29052185 304.20670105 541.60520935 305.15763855 C540.25763617 307.01955264 538.90489546 308.87773935 537.5466156 310.7318573 C536.30576152 312.42576156 535.07329969 314.12586165 533.8513031 315.8334198 C533.05659607 316.92976746 533.05659607 316.92976746 532.24583435 318.04826355 C531.78434998 318.69150574 531.3228656 319.33474792 530.84739685 319.9974823 C530.44263123 320.44736511 530.0378656 320.89724792 529.62083435 321.36076355 C528.96083435 321.36076355 528.30083435 321.36076355 527.62083435 321.36076355 C526.96083435 323.01076355 526.30083435 324.66076355 525.62083435 326.36076355 C524.96083435 326.36076355 524.30083435 326.36076355 523.62083435 326.36076355 C523.38622498 326.9124823 523.1516156 327.46420105 522.90989685 328.03263855 C515.80033668 340.8729351 494.61123372 363.69729709 480.62083435 368.36076355 C480.29083435 369.35076355 479.96083435 370.34076355 479.62083435 371.36076355 C477.340492 373.19137972 475.07886755 374.88397339 472.68333435 376.54826355 C472.03686951 377.01168152 471.39040466 377.47509949 470.72434998 377.95256042 C465.89062448 381.36076355 465.89062448 381.36076355 463.62083435 381.36076355 C463.62083435 382.02076355 463.62083435 382.68076355 463.62083435 383.36076355 C461.41964774 384.93048662 459.22863538 386.37889158 456.93333435 387.79826355 C456.30749451 388.19336121 455.68165466 388.58845886 455.03684998 388.99552917 C453.23778063 390.12771836 451.43009432 391.24495892 449.62083435 392.36076355 C448.21897888 393.24441589 448.21897888 393.24441589 446.7888031 394.1459198 C444.62083435 395.36076355 444.62083435 395.36076355 442.62083435 395.36076355 C442.62083435 396.02076355 442.62083435 396.68076355 442.62083435 397.36076355 C441.67208435 397.73201355 440.72333435 398.10326355 439.74583435 398.48576355 C435.61942462 400.2446978 431.90268149 402.55310696 428.08177185 404.8881073 C421.62053886 408.75459117 414.69635195 411.71826875 407.8591156 414.8490448 C405.01877468 416.17499406 402.22328669 417.55783519 399.43333435 418.98576355 C392.58503933 422.44315521 385.49756144 425.1546109 378.20677185 427.5209198 C374.98230494 428.56814093 371.77157017 429.65458043 368.55833435 430.73576355 C365.9141925 431.61592862 363.26795686 432.48960783 360.62083435 433.36076355 C359.9875824 433.56991394 359.35433044 433.77906433 358.70188904 433.99455261 C334.97263593 441.78242767 310.66138013 446.73138906 285.93479919 450.04045105 C282.80159065 450.47416804 279.68188503 450.98775313 276.55833435 451.48576355 C259.87769527 453.82179765 242.87465153 453.50491869 226.06987 453.48101807 C223.75509496 453.48145513 221.44031998 453.48233251 219.12554526 453.48360723 C212.82004925 453.48582571 206.51457047 453.4818675 200.20907664 453.47682917 C194.09081181 453.4729336 187.97254919 453.47379169 181.85428348 453.47451101 C169.35355476 453.47581913 156.85283136 453.47250562 144.35210419 453.46649361 C131.98737308 453.46056233 119.6226442 453.45672479 107.25791168 453.45564079 C106.48709132 453.45557205 105.71627096 453.45550331 104.9220924 453.45543249 C101.00696656 453.45509412 97.09184071 453.45479275 93.17671487 453.45450561 C65.49646543 453.45240912 37.81621888 453.44568274 10.13597107 453.436203 C-16.74326055 453.42700827 -43.62249137 453.41992971 -70.50172424 453.41569519 C-71.33128286 453.41556366 -72.16084148 453.41543214 -73.01553824 453.41529663 C-81.3468396 453.41397803 -89.67814096 453.41270222 -98.00944233 453.41145777 C-114.97897661 453.40892203 -131.94851084 453.40610078 -148.91804504 453.40310669 C-149.69815658 453.4029694 -150.47826811 453.40283211 -151.28201938 453.40269066 C-203.31440275 453.3935009 -255.34678421 453.37742756 -307.37916565 453.36076355 C-307.37916565 422.67076355 -307.37916565 391.98076355 -307.37916565 360.36076355 C-308.03916565 360.36076355 -308.69916565 360.36076355 -309.37916565 360.36076355 C-309.47294506 351.35315573 -309.54346609 342.34572267 -309.58641434 333.3377285 C-309.60705492 329.15235707 -309.63492569 324.96732592 -309.68092346 320.78215027 C-309.87965922 302.2062839 -309.76989157 284.53290971 -305.37916565 266.36076355 C-304.85794745 263.99522017 -304.3482727 261.62739398 -303.83940125 259.25917053 C-302.46085991 253.01126397 -300.73333771 246.97923405 -298.30885315 241.04826355 C-297.50222527 238.71649891 -296.94868256 236.51400624 -296.4377594 234.1068573 C-295.43841188 229.43582579 -294.08723321 224.94870391 -292.56666565 220.42326355 C-292.30313293 219.63476013 -292.03960022 218.84625671 -291.76808167 218.03385925 C-290.06600656 213.06191388 -288.09485993 208.42381434 -285.6018219 203.79045105 C-283.58307559 199.77875711 -282.0901939 195.57004556 -280.5158844 191.36857605 C-279.23611573 187.98224659 -277.84193074 184.67123192 -276.37916565 181.36076355 C-275.71916565 181.36076355 -275.05916565 181.36076355 -274.37916565 181.36076355 C-274.26701721 180.63759949 -274.15486877 179.91443542 -274.0393219 179.1693573 C-273.34164477 176.20113329 -272.31465503 174.07229654 -270.81666565 171.42326355 C-270.27912659 170.46806824 -269.74158752 169.51287292 -269.1877594 168.5287323 C-268.59092346 167.48330261 -267.99408752 166.43787292 -267.37916565 165.36076355 C-266.72348958 164.19059834 -266.06856366 163.02001254 -265.4143219 161.8490448 C-256.757212 146.4273289 -256.757212 146.4273289 -253.37916565 142.36076355 C-252.71916565 142.36076355 -252.05916565 142.36076355 -251.37916565 142.36076355 C-251.13295471 141.66338074 -250.88674377 140.96599792 -250.6330719 140.2474823 C-246.3654343 130.42260944 -238.61046575 122.08754162 -231.37916565 114.36076355 C-230.24815022 113.07436086 -229.12284961 111.78290424 -228.00416565 110.48576355 C-216.07537484 96.8606768 -203.56086739 84.65983452 -189.37916565 73.36076355 C-188.48971252 72.63759949 -187.6002594 71.91443542 -186.68385315 71.1693573 C-174.58116841 61.36076355 -174.58116841 61.36076355 -171.37916565 61.36076355 C-171.37916565 60.70076355 -171.37916565 60.04076355 -171.37916565 59.36076355 C-169.98976135 58.26335144 -169.98976135 58.26335144 -168.0549469 57.0834198 C-167.00597229 56.43663269 -167.00597229 56.43663269 -165.93580627 55.77677917 C-164.82495667 55.10678894 -164.82495667 55.10678894 -163.69166565 54.42326355 C-162.97043518 53.98047058 -162.24920471 53.53767761 -161.50611877 53.08146667 C-160.10160421 52.22080067 -158.69428672 51.36468885 -157.28395081 50.51359558 C-155.67457029 49.53955113 -154.07806387 48.54428267 -152.4846344 47.5443573 C-150.37916565 46.36076355 -150.37916565 46.36076355 -148.37916565 46.36076355 C-148.37916565 45.70076355 -148.37916565 45.04076355 -148.37916565 44.36076355 C-143.14545582 41.3582044 -137.9462627 38.70480442 -132.37916565 36.36076355 C-130.87422815 35.62072089 -129.37470455 34.86962019 -127.87916565 34.11076355 C-116.01121805 28.14104292 -104.02965585 22.88632926 -91.60035706 18.20158386 C-89.45291958 17.38868271 -87.31200298 16.56054165 -85.1721344 15.72795105 C-74.25219904 11.50826102 -63.22882551 7.84890909 -51.66041565 5.85295105 C-49.28288382 5.38780635 -49.28288382 5.38780635 -46.68823141 4.4301551 C-31.46530558 -0.48944137 -15.80784502 -0.05817688 0 0 Z " fill="#FEFEFE" transform="translate(1163.379165649414,511.6392364501953)"/>
<path d="M0 0 C40.92 0 81.84 0 124 0 C124 40.59 124 81.18 124 123 C235.54 123 347.08 123 462 123 C462 373.47 462 623.94 462 882 C433.45313592 878.43164199 404.21411833 868.04242759 378.9375 854.25 C373.53312139 851.32023239 368.07822448 848.52642254 362.5625 845.8125 C357.78690154 843.45423587 353.13871503 841.02474039 348.68359375 838.09765625 C345.86730356 836.26151346 342.92940895 834.64779253 340 833 C340 832.34 340 831.68 340 831 C339.42636719 830.89300781 338.85273437 830.78601562 338.26171875 830.67578125 C335.6536419 829.89651131 334.01412696 828.78903748 331.8125 827.1875 C328.43206218 824.74607269 325.04014258 822.33127291 321.6015625 819.97265625 C320.83352295 819.44196533 320.0654834 818.91127441 319.27416992 818.36450195 C317.72850355 817.29653709 316.17922615 816.23377786 314.6262207 815.17651367 C313.55633911 814.43171753 313.55633911 814.43171753 312.46484375 813.671875 C311.821521 813.2294043 311.17819824 812.78693359 310.51538086 812.33105469 C309 811 309 811 308 808 C306.68887399 807.29065466 305.35031573 806.63156128 304 806 C288.6555556 794.69634733 274.24371604 780.55728447 262 766 C260.79537109 764.576875 260.79537109 764.576875 259.56640625 763.125 C253 755.2576053 253 755.2576053 253 753 C252.09652832 752.61714844 252.09652832 752.61714844 251.17480469 752.2265625 C248.74929847 750.85860749 247.75780617 749.66203281 246.203125 747.375 C245.71972656 746.66859375 245.23632812 745.9621875 244.73828125 745.234375 C244.24714844 744.49703125 243.75601563 743.7596875 243.25 743 C242.74339844 742.26265625 242.23679687 741.5253125 241.71484375 740.765625 C238 735.27847035 238 735.27847035 238 733 C237.34 733 236.68 733 236 733 C234.703125 731.12890625 234.703125 731.12890625 233.25 728.5625 C230.72696655 724.18758486 228.01850168 720.03126776 225.1015625 715.91015625 C224 714 224 714 224 711 C223.34 711 222.68 711 222 711 C216.17570868 700.1430686 210.56168592 689.29118794 205.4375 678.08203125 C204.3460811 675.74200541 203.21186614 673.46479845 202 671.1875 C199.12100576 665.48850731 197.06810627 659.41679437 194.88574219 653.42626953 C193.9235145 650.79048708 192.95026419 648.15890793 191.9765625 645.52734375 C182.97111331 621.10074379 182.97111331 621.10074379 181.109375 611.51953125 C180.07555257 606.21415595 178.81076917 600.97674236 177.5378418 595.72436523 C174.91695213 584.85177371 172.4635858 573.98644685 170.6875 562.9375 C170.54070801 562.03829834 170.39391602 561.13909668 170.24267578 560.21264648 C169.77577979 557.14676875 169.38471195 554.07737901 169 551 C168.91742707 550.36327854 168.83485413 549.72655708 168.74977899 549.07054102 C166.60185276 531.96092995 166.72414295 514.84274364 166.76786876 497.63440359 C166.77661507 493.30548934 166.77357531 488.97657991 166.77206421 484.6476593 C166.77102233 477.17186219 166.77722535 469.69610036 166.78853989 462.22031212 C166.80488745 451.41196832 166.81001229 440.60364134 166.81251587 429.79528651 C166.81687856 412.25373281 166.83014869 394.71219784 166.84912109 377.1706543 C166.867517 360.14428804 166.88163231 343.11792692 166.89013672 326.09155273 C166.89067271 325.02898461 166.89120871 323.96641648 166.89176095 322.87164932 C166.8959205 314.56000671 166.8998341 306.24836398 166.90367007 297.93672121 C166.92249155 257.29113026 166.96273896 216.64558631 167 176 C111.89 176 56.78 176 0 176 C0 117.92 0 59.84 0 0 Z " fill="#FEFEFE" transform="translate(702,873)"/>
<path d="M0 0 C2.15594987 0.7466087 4.33337381 1.36770795 6.53271484 1.97314453 C12.8702079 3.84468545 18.92657697 6.40930604 25.03320312 8.91381836 C26.96826067 9.68476666 28.91861991 10.39898195 30.87646484 11.10986328 C34.98380881 12.63930978 38.87626215 14.49214492 42.78271484 16.47314453 C43.48251465 16.82642822 44.18231445 17.17971191 44.90332031 17.54370117 C53.61754783 21.98737344 61.80052393 27.18547252 70 32.50219727 C72.49709672 34.12113522 74.98913074 35.70701464 77.57568359 37.18017578 C80.06625753 38.76129391 81.86199462 40.54509048 83.90771484 42.66064453 C85.2648724 43.7458425 86.64072401 44.80800378 88.03271484 45.84814453 C95.12366393 51.28921933 101.60293173 57.33628134 107.90771484 63.66064453 C109.11427734 64.79759766 109.11427734 64.79759766 110.34521484 65.95751953 C117.9640449 73.25115563 124.21913105 81.3109385 130.49511719 89.76953125 C132.75348955 92.79292432 135.09702261 95.74796864 137.44287109 98.70361328 C141.34682795 103.91929964 144.57184811 109.4759009 147.76708984 115.14208984 C149.3766031 117.9882163 151.00018834 120.81255088 152.70068359 123.60595703 C157.96592499 132.25685708 161.99387977 141.34117307 165.90771484 150.66064453 C166.39498047 151.82080078 166.88224609 152.98095703 167.38427734 154.17626953 C172.20101602 166.1737904 174.99267702 178.32262516 177.09521484 191.03564453 C177.262229 192.02661133 177.42924316 193.01757812 177.60131836 194.03857422 C180.06775427 209.74353825 180.07037407 225.54878568 180.03808594 241.40722656 C180.03273432 244.52430103 180.03806122 247.6412307 180.04443359 250.75830078 C180.05298188 268.57302151 179.54341867 286.00749376 176.59521484 303.59814453 C176.29454102 305.53657227 176.29454102 305.53657227 175.98779297 307.51416016 C174.29830296 317.85509439 171.7562651 327.57715066 166.84130859 336.87158203 C165.35269398 339.724241 164.15580089 342.69644016 162.90771484 345.66064453 C160.35352386 351.5868709 157.63740218 357.43874107 154.90771484 363.28564453 C154.57553955 364.00220215 154.24336426 364.71875977 153.90112305 365.45703125 C151.77122707 369.99738949 149.42704619 374.32468789 146.90771484 378.66064453 C146.14251315 380.13200458 145.38892891 381.60960161 144.65771484 383.09814453 C144.08021484 384.27376953 143.50271484 385.44939453 142.90771484 386.66064453 C142.24771484 386.66064453 141.58771484 386.66064453 140.90771484 386.66064453 C140.50129761 387.74635742 140.50129761 387.74635742 140.08666992 388.85400391 C138.10042215 393.58249934 135.29144389 397.80957125 132.59521484 402.16064453 C132.02609375 403.09779297 131.45697266 404.03494141 130.87060547 405.00048828 C127.91258774 409.78901296 125.03738062 413.78951959 120.90771484 417.66064453 C119.66484837 419.34402065 118.45650699 421.05339622 117.28271484 422.78564453 C113.43612134 428.19423236 109.12342068 432.63006745 104.37646484 437.22705078 C102.50808879 439.06882021 100.83390945 440.85536457 99.22021484 442.91064453 C96.15340179 446.55766547 92.73145691 449.80760961 88.90771484 452.66064453 C88.24771484 452.66064453 87.58771484 452.66064453 86.90771484 452.66064453 C86.72208984 453.22396484 86.53646484 453.78728516 86.34521484 454.36767578 C84.25864849 457.69597592 81.17736127 459.32358329 77.90771484 461.34814453 C72.22100401 464.99191193 67.22987489 468.86679204 62.29833984 473.50439453 C58.11810796 477.27479976 53.51062151 480.4327171 48.90771484 483.66064453 C47.99119141 484.32708984 47.07466797 484.99353516 46.13037109 485.68017578 C45.25251953 486.31310547 44.37466797 486.94603516 43.47021484 487.59814453 C42.68775391 488.16404297 41.90529297 488.72994141 41.09912109 489.31298828 C38.98852132 490.61095071 37.32956947 491.22482103 34.90771484 491.66064453 C34.90771484 492.32064453 34.90771484 492.98064453 34.90771484 493.66064453 C33.61857997 494.33219386 32.3263128 494.99773312 31.03271484 495.66064453 C30.31341797 496.03189453 29.59412109 496.40314453 28.85302734 496.78564453 C26.90771484 497.66064453 26.90771484 497.66064453 24.90771484 497.66064453 C24.90771484 498.32064453 24.90771484 498.98064453 24.90771484 499.66064453 C23.95896484 500.05251953 23.01021484 500.44439453 22.03271484 500.84814453 C19.01536892 502.1386961 16.08530775 503.55314141 13.15771484 505.03564453 C7.81028065 507.73776226 2.37519413 510.21275985 -3.09228516 512.66064453 C-3.85412109 513.01126953 -4.61595703 513.36189453 -5.40087891 513.72314453 C-10.3660217 515.98887814 -15.40281389 517.90157117 -20.54541016 519.72705078 C-22.54916987 520.46155779 -24.51708337 521.29388818 -26.46728516 522.16064453 C-34.71920242 525.57523099 -42.9273144 527.78389553 -51.72900391 529.12158203 C-52.5488829 529.24842377 -53.3687619 529.3752655 -54.21348572 529.50595093 C-62.95181234 530.83238844 -71.71778897 531.92182886 -80.4934082 532.96826172 C-83.18501099 533.28924912 -85.87598343 533.61516361 -88.56689453 533.94189453 C-90.31620975 534.15311169 -92.06555755 534.36405914 -93.81494141 534.57470703 C-94.9933535 534.7169017 -94.9933535 534.7169017 -96.1955719 534.86196899 C-120.42782515 537.74725497 -144.73396521 537.82844059 -169.10546875 537.79101562 C-172.84284118 537.78531888 -176.58014248 537.78872741 -180.31751251 537.79443264 C-204.6237487 537.82634981 -228.85518975 537.68225031 -253.00927734 534.66870117 C-255.62132981 534.34454003 -258.23528724 534.04174118 -260.85009766 533.74072266 C-262.58722736 533.53168335 -264.32421267 533.32143995 -266.06103516 533.10986328 C-266.80526733 533.02427658 -267.54949951 532.93868988 -268.31628418 532.85050964 C-274.10377947 532.11079666 -279.74888958 530.88706777 -285.43518066 529.60456848 C-286.26894352 529.41783522 -287.10270638 529.23110196 -287.96173477 529.03871012 C-290.00556572 528.58075472 -292.04896898 528.12089129 -294.09228516 527.66064453 C-294.32139986 476.89914926 -294.4974963 426.13770645 -294.60293845 375.37579541 C-294.61544484 369.37675013 -294.62838813 363.37770587 -294.64160156 357.37866211 C-294.64422467 356.18440948 -294.64684777 354.99015686 -294.64955036 353.75971476 C-294.69300999 334.44717746 -294.77182594 315.13493921 -294.86381312 295.82257905 C-294.95747807 275.99191835 -295.01290451 256.16141377 -295.0331701 236.33054096 C-295.04686054 224.10325393 -295.09002767 211.87681228 -295.17144983 199.64978562 C-295.22449483 191.25412558 -295.24024462 182.85889969 -295.22729893 174.46308442 C-295.22092204 169.62584012 -295.2303794 164.79006816 -295.2843399 159.95308876 C-295.67232502 123.40091632 -295.67232502 123.40091632 -285.25905108 109.30911696 C-283.56060417 106.90945578 -282.33015926 104.31952028 -281.09228516 101.66064453 C-280.43228516 101.66064453 -279.77228516 101.66064453 -279.09228516 101.66064453 C-278.76228516 100.01064453 -278.43228516 98.36064453 -278.09228516 96.66064453 C-277.43228516 96.66064453 -276.77228516 96.66064453 -276.09228516 96.66064453 C-275.82029297 95.92587891 -275.54830078 95.19111328 -275.26806641 94.43408203 C-266.89995668 74.69535144 -244.71048557 54.38809696 -227.09228516 42.66064453 C-226.43228516 42.66064453 -225.77228516 42.66064453 -225.09228516 42.66064453 C-224.76228516 41.67064453 -224.43228516 40.68064453 -224.09228516 39.66064453 C-221.65869141 37.83642578 -221.65869141 37.83642578 -218.65478516 35.97314453 C-217.66607422 35.35052734 -216.67736328 34.72791016 -215.65869141 34.08642578 C-213.09228516 32.66064453 -213.09228516 32.66064453 -211.09228516 32.66064453 C-211.09228516 32.00064453 -211.09228516 31.34064453 -211.09228516 30.66064453 C-210.58181641 30.38091797 -210.07134766 30.10119141 -209.54541016 29.81298828 C-204.99979847 27.30645418 -200.50146705 24.73456181 -196.02978516 22.09814453 C-188.16395311 17.51878936 -180.45843601 13.93756758 -171.90185547 10.85375977 C-168.88786639 9.75893153 -166.06706115 8.64748418 -163.21728516 7.16064453 C-159.0143781 5.14324914 -154.7021332 3.96114311 -150.21728516 2.72314453 C-149.29052979 2.46299561 -148.36377441 2.20284668 -147.40893555 1.93481445 C-140.03826096 -0.11770619 -132.63966026 -2.03702751 -125.19921875 -3.82006836 C-123.58376954 -4.21822137 -121.97289644 -4.63498068 -120.36425781 -5.05981445 C-82.38091382 -14.96891366 -37.11070129 -12.89697692 0 0 Z " fill="#FEFEFE" transform="translate(1480.09228515625,1230.33935546875)"/>
</svg>
