<?xml version="1.0" encoding="UTF-8"?>
<svg version="1.1" xmlns="http://www.w3.org/2000/svg" width="512" height="512">
<path d="M0 0 C0.66879181 -0.00407553 1.33758362 -0.00815105 2.02664185 -0.01235008 C5.58156002 -0.03313416 9.13644072 -0.04745669 12.69140625 -0.05688477 C15.57704382 -0.06565301 18.46218534 -0.08631625 21.34765625 -0.1184082 C43.71407525 -0.36146183 65.15670811 1.08793163 86.75 7.48828125 C87.77706055 7.78565186 88.80412109 8.08302246 89.86230469 8.3894043 C124.68706012 18.71809796 156.44004117 35.63440372 184.0625 59.23828125 C184.81144531 59.87507813 185.56039063 60.511875 186.33203125 61.16796875 C199.82770621 72.98530593 212.49808025 85.72379713 223.0625 100.23828125 C223.91899066 101.38822956 224.77576433 102.53796714 225.6328125 103.6875 C231.67284209 111.87762383 237.05617614 120.38207743 242.0625 129.23828125 C242.4646875 129.94549316 242.866875 130.65270508 243.28125 131.38134766 C256.3066741 154.51673961 265.05551461 179.68790534 270.375 205.67578125 C270.52235596 206.39467529 270.66971191 207.11356934 270.8215332 207.85424805 C273.79539088 223.50053734 274.43550362 238.97396171 274.375 254.86328125 C274.37284485 255.88118744 274.3706897 256.89909363 274.36846924 257.94784546 C274.31879854 272.55691648 274.06790191 286.88903978 271.0625 301.23828125 C270.76448486 302.70056152 270.76448486 302.70056152 270.46044922 304.19238281 C260.33982806 352.57425865 238.4233123 396.56256394 204.0625 432.23828125 C203.43037598 432.89763672 202.79825195 433.55699219 202.14697266 434.23632812 C193.00252521 443.7245843 183.70515991 452.46448565 173.0625 460.23828125 C171.91144983 461.09634277 170.76040823 461.95441576 169.609375 462.8125 C161.41974019 468.85005521 152.91711724 474.23285427 144.0625 479.23828125 C143.35528809 479.64046875 142.64807617 480.04265625 141.91943359 480.45703125 C118.78404164 493.48245535 93.61287591 502.23129586 67.625 507.55078125 C66.90610596 507.69813721 66.18721191 507.84549316 65.4465332 507.99731445 C49.80024391 510.97117213 34.32681954 511.61128487 18.4375 511.55078125 C17.41959381 511.5486261 16.40168762 511.54647095 15.35293579 511.54425049 C0.74386477 511.49457979 -13.58825853 511.24368316 -27.9375 508.23828125 C-29.39978027 507.94026611 -29.39978027 507.94026611 -30.89160156 507.63623047 C-79.2734774 497.51560931 -123.26178269 475.59909355 -158.9375 441.23828125 C-159.59685547 440.60615723 -160.25621094 439.9740332 -160.93554688 439.32275391 C-170.42380305 430.17830646 -179.1637044 420.88094116 -186.9375 410.23828125 C-187.79556152 409.08723108 -188.65363451 407.93618948 -189.51171875 406.78515625 C-195.54927396 398.59552144 -200.93207302 390.09289849 -205.9375 381.23828125 C-206.3396875 380.53106934 -206.741875 379.82385742 -207.15625 379.09521484 C-225.11442835 347.19840353 -236.964219 310.05579252 -237.17578125 273.30078125 C-237.17985678 272.63198944 -237.1839323 271.96319763 -237.18813133 271.2741394 C-237.20891541 267.71922123 -237.22323794 264.16434053 -237.23266602 260.609375 C-237.24143426 257.72373743 -237.2620975 254.83859591 -237.29418945 251.953125 C-237.53724308 229.586706 -236.08784962 208.14407314 -229.6875 186.55078125 C-229.39012939 185.5237207 -229.09275879 184.49666016 -228.78637695 183.43847656 C-218.45768329 148.61372113 -201.54137753 116.86074008 -177.9375 89.23828125 C-176.98230469 88.11486328 -176.98230469 88.11486328 -176.0078125 86.96875 C-164.19047532 73.47307504 -151.45198412 60.802701 -136.9375 50.23828125 C-135.78755169 49.38179059 -134.63781411 48.52501692 -133.48828125 47.66796875 C-125.29815742 41.62793916 -116.79370382 36.24460511 -107.9375 31.23828125 C-107.23028809 30.83609375 -106.52307617 30.43390625 -105.79443359 30.01953125 C-73.89762228 12.0613529 -36.75501127 0.21156225 0 0 Z M-25.9375 19.23828125 C-27.01386719 19.46402832 -28.09023437 19.68977539 -29.19921875 19.92236328 C-51.86819265 24.84391683 -73.53240257 32.15772089 -93.9375 43.23828125 C-94.58058105 43.57794922 -95.22366211 43.91761719 -95.88623047 44.26757812 C-124.15717161 59.20631898 -150.39569274 80.90017523 -169.9375 106.23828125 C-170.35999023 106.78436035 -170.78248047 107.33043945 -171.21777344 107.89306641 C-182.54827754 122.6376194 -192.09381392 138.38147064 -199.9375 155.23828125 C-200.45828125 156.35074219 -200.9790625 157.46320313 -201.515625 158.609375 C-209.04153759 175.42384812 -214.35884008 193.18705016 -217.9375 211.23828125 C-218.10266113 212.05232422 -218.26782227 212.86636719 -218.43798828 213.70507812 C-223.66510316 240.88391327 -223.6410797 273.14983946 -217.9375 300.23828125 C-217.59887939 301.85283203 -217.59887939 301.85283203 -217.25341797 303.5 C-212.33186442 326.1689739 -205.01806036 347.83318382 -193.9375 368.23828125 C-193.42799805 369.20290283 -193.42799805 369.20290283 -192.90820312 370.18701172 C-177.96946227 398.45795286 -156.27560602 424.69647399 -130.9375 444.23828125 C-130.11838135 444.8720166 -130.11838135 444.8720166 -129.28271484 445.51855469 C-114.53816185 456.84905879 -98.79431061 466.39459517 -81.9375 474.23828125 C-80.82503906 474.7590625 -79.71257812 475.27984375 -78.56640625 475.81640625 C-61.75193313 483.34231884 -43.98873109 488.65962133 -25.9375 492.23828125 C-25.12345703 492.40344238 -24.30941406 492.56860352 -23.47070312 492.73876953 C3.70813202 497.96588441 35.97405821 497.94186095 63.0625 492.23828125 C64.13886719 492.01253418 65.21523438 491.78678711 66.32421875 491.55419922 C88.99319265 486.63264567 110.65740257 479.31884161 131.0625 468.23828125 C132.02712158 467.7287793 132.02712158 467.7287793 133.01123047 467.20898438 C161.28217161 452.27024352 187.52069274 430.57638727 207.0625 405.23828125 C207.69623535 404.4191626 207.69623535 404.4191626 208.34277344 403.58349609 C219.67327754 388.8389431 229.21881392 373.09509186 237.0625 356.23828125 C237.58328125 355.12582031 238.1040625 354.01335937 238.640625 352.8671875 C246.16653759 336.05271438 251.48384008 318.28951234 255.0625 300.23828125 C255.22766113 299.42423828 255.39282227 298.61019531 255.56298828 297.77148438 C260.79010316 270.59264923 260.7660797 238.32672304 255.0625 211.23828125 C254.83675293 210.16191406 254.61100586 209.08554688 254.37841797 207.9765625 C249.45686442 185.3075886 242.14306036 163.64337868 231.0625 143.23828125 C230.72283203 142.5952002 230.38316406 141.95211914 230.03320312 141.28955078 C215.09446227 113.01860964 193.40060602 86.78008851 168.0625 67.23828125 C167.5164209 66.81579102 166.9703418 66.39330078 166.40771484 65.95800781 C151.66316185 54.62750371 135.91931061 45.08196733 119.0625 37.23828125 C117.95003906 36.7175 116.83757812 36.19671875 115.69140625 35.66015625 C98.87693313 28.13424366 81.11373109 22.81694117 63.0625 19.23828125 C62.24845703 19.07312012 61.43441406 18.90795898 60.59570312 18.73779297 C33.41686798 13.51067809 1.15094179 13.53470155 -25.9375 19.23828125 Z " fill="#9582B7" transform="translate(236.9375,-0.23828125)"/>
<path d="M0 0 C0.76957031 0.25523438 1.53914063 0.51046875 2.33203125 0.7734375 C12.46336148 4.64144098 19.72153776 12.76682781 25 22 C25.40089844 22.65742187 25.80179687 23.31484375 26.21484375 23.9921875 C29.98631636 30.67614964 30.23161469 37.71111719 29.74609375 45.25390625 C28.81173719 55.16487643 28.81173719 55.16487643 32.08203125 64.18359375 C34.66415909 66.52423018 34.66415909 66.52423018 37.421875 68.28125 C40.28486421 70.18990947 41.92432183 72.2789429 44 75 C44.99 75.825 45.98 76.65 47 77.5 C50 80 50 80 51.9375 82.5 C54.60073801 85.72816728 57.53236702 87.66601626 61 90 C67.23776491 84.73745871 67.23776491 84.73745871 72.75 78.75 C75 76 75 76 77.4375 74.0625 C80.1658809 71.8664861 82.19588472 69.5051441 84.375 66.78125 C86 65 86 65 88.67578125 63.40234375 C91.32922829 60.65970521 91.34462109 60.11897886 91.41796875 56.47265625 C91.36171481 54.66851207 91.28376589 52.86495211 91.1875 51.0625 C91.14329282 49.15769079 91.10551345 47.25272136 91.07421875 45.34765625 C91.05665527 44.4261377 91.0390918 43.50461914 91.02099609 42.55517578 C90.91055363 29.11458422 95.83901939 19.14642696 105.0625 9.4375 C114.12506667 1.05989476 126.29997969 -3.15341836 138.5625 -3.125 C139.67753906 -3.12757812 140.79257812 -3.13015625 141.94140625 -3.1328125 C144.49193728 -3.02206147 146.57590829 -2.7467862 149 -2 C148.4380847 3.05723771 144.51748298 5.67859628 140.9140625 8.81640625 C136.40635786 12.74718624 132.31629283 16.71792511 128.5078125 21.3359375 C127 23 127 23 124 25 C124.57942875 30.88086881 125.7893746 36.18518606 127.5625 41.8125 C130 49.62190083 130 49.62190083 130 53 C130.94359375 53.18175781 131.8871875 53.36351562 132.859375 53.55078125 C134.78523438 53.92783203 134.78523438 53.92783203 136.75 54.3125 C137.42869141 54.44132568 138.10738281 54.57015137 138.80664062 54.70288086 C143.15653277 55.55135443 147.27361491 56.71091492 151.5 58.0625 C155.34047783 59.0885161 155.34047783 59.0885161 159.05078125 58.1328125 C160.96405397 56.56316526 162.44266784 54.9226323 164 53 C164.59425781 52.33484375 165.18851563 51.6696875 165.80078125 50.984375 C167.00856621 49.62917303 168.20163204 48.2606958 169.37890625 46.87890625 C171.46763075 44.45799906 173.71053954 42.23075634 176 40 C176.50660156 39.45988281 177.01320313 38.91976562 177.53515625 38.36328125 C178.96738953 36.85362995 180.47981237 35.42104496 182 34 C182.99 34 183.98 34 185 34 C185.11745244 37.81223512 185.18766603 41.62399682 185.25 45.4375 C185.28351563 46.50677734 185.31703125 47.57605469 185.3515625 48.67773438 C185.43801393 55.74513908 184.52180956 60.8536419 181 67 C180.48179687 67.9075 179.96359375 68.815 179.4296875 69.75 C171.34234674 81.45429215 162.44760724 88.11049142 148.5703125 91.61328125 C140.07197798 92.89190605 131.18072382 92.67125676 123 90 C122.73703125 90.60199219 122.4740625 91.20398438 122.203125 91.82421875 C120.93420534 94.1189858 119.79869084 95.21138351 117.75 96.8125 C114.56474628 99.42282203 112.01651287 102.24125629 109.40234375 105.41015625 C107.49770377 107.56945562 105.25025715 109.21133406 103 111 C102.175 111.99 101.35 112.98 100.5 114 C98 117 98 117 95.5625 118.9375 C93.35854675 120.71141359 91.79007843 122.34366511 90 124.5 C87.57334611 127.42315596 84.97799546 129.63287541 82 132 C81.175 132.99 80.35 133.98 79.5 135 C77 138 77 138 74.5625 139.9375 C72.35854675 141.71141359 70.79007843 143.34366511 69 145.5 C66.57334611 148.42315596 63.97799546 150.63287541 61 153 C60.175 153.99 59.35 154.98 58.5 156 C56 159 56 159 53.5625 160.9375 C50.85895802 163.11352159 48.81160727 165.44374223 46.625 168.12109375 C43.689775 171.51494765 40.60807426 174.52489131 37.0703125 177.2890625 C31.31951047 181.54618563 31.31951047 181.54618563 28.51171875 187.77734375 C28.815485 190.59014029 29.35739743 193.24657002 30 196 C31.07042691 209.33379613 28.27188356 220.36994447 19.78125 230.69921875 C14.11423271 237.16906349 9.32212389 241.84461099 1.0625 244.6875 C-0.12214844 245.10386719 -1.30679688 245.52023437 -2.52734375 245.94921875 C-13.39767522 249.23844166 -23.32680313 248.56807453 -34 245 C-34.845625 244.74476563 -35.69125 244.48953125 -36.5625 244.2265625 C-47.2953912 240.57067143 -55.70147945 231.89431954 -61 222 C-64.26671045 214.77395679 -64.48694827 207.83979909 -64.4375 200 C-64.45748047 198.8759375 -64.47746094 197.751875 -64.49804688 196.59375 C-64.49388711 189.47223951 -63.5407943 184.19700775 -60 178 C-59.27876953 176.71222656 -59.27876953 176.71222656 -58.54296875 175.3984375 C-50.54712937 163.46228534 -40.17287815 156.10072986 -26 153 C-23.21703008 152.87900131 -20.47009503 152.81490501 -17.6875 152.8125 C-16.95337891 152.80025391 -16.21925781 152.78800781 -15.46289062 152.77539062 C-10.59798996 152.76244058 -6.61631426 153.45716313 -2 155 C-1.73703125 154.39800781 -1.4740625 153.79601562 -1.203125 153.17578125 C0.06579466 150.8810142 1.20130916 149.78861649 3.25 148.1875 C6.43525372 145.57717797 8.98348713 142.75874371 11.59765625 139.58984375 C13.50229623 137.43054438 15.74974285 135.78866594 18 134 C18.825 133.01 19.65 132.02 20.5 131 C22.81455197 128.22253763 25.1090619 126.14755402 28 124 C27.45222723 120.26369914 26.08844515 118.89294387 23.1875 116.5625 C20.01570415 113.91933679 17.57149659 111.23510861 15 108 C13.28071694 106.44267839 11.51213395 104.9580104 9.73046875 103.47265625 C7.34874306 101.44577005 5.18158849 99.23899871 3 97 C2.071875 96.113125 1.14375 95.22625 0.1875 94.3125 C-2 92 -2 92 -2 90 C-3.5159375 90.495 -3.5159375 90.495 -5.0625 91 C-15.04812507 93.46536747 -25.48894921 92.77474979 -35 89 C-35.73347656 88.75636719 -36.46695313 88.51273437 -37.22265625 88.26171875 C-48.40246299 84.10133212 -56.71211333 74.42160754 -62 64 C-64.40265034 57.68124486 -64.36746849 51.93798045 -64.375 45.25 C-64.39949219 44.12078125 -64.42398438 42.9915625 -64.44921875 41.828125 C-64.49711339 28.03446883 -58.94689355 18.87046899 -49.97265625 8.703125 C-37.06805633 -4.08132036 -16.47658079 -5.80338987 0 0 Z M-22.43945312 21.13476562 C-26.96529237 22.5032271 -31.30103656 23.45853004 -36 24 C-42.56456547 38.07019127 -42.56456547 38.07019127 -44 53 C-41.99532861 55.39219259 -41.99532861 55.39219259 -39.3125 57.5 C-38.39855469 58.27730469 -37.48460937 59.05460937 -36.54296875 59.85546875 C-35.28419922 60.91701172 -35.28419922 60.91701172 -34 62 C-31.5322839 64.33814628 -29.2547943 66.63196379 -27.3125 69.4375 C-24.45061814 71.37120396 -23.68985458 71.0580656 -20.375 70.4375 C-16.03835142 69.36451478 -11.76309289 68.07883633 -7.51953125 66.68359375 C-4.37438753 65.83026018 -1.22919843 65.4139998 2 65 C2.99012636 61.83665701 3.9650472 58.66881644 4.9375 55.5 C5.21529297 54.613125 5.49308594 53.72625 5.77929688 52.8125 C7.39054541 47.53226384 8.71001169 42.52828773 9 37 C7.00333267 34.33336666 7.00333267 34.33336666 4 32 C2.85726361 30.70291296 1.73338976 29.38905697 0.625 28.0625 C-2.58555399 24.36017626 -5.96246035 20.81242867 -10 18 C-14.18604706 18 -18.44583905 19.89823464 -22.43945312 21.13476562 Z M23 87 C21.73989657 89.80857748 21.73989657 89.80857748 22 93 C23.75352772 95.22205501 23.75352772 95.22205501 25.34375 96.515625 C27.41624962 98.37305391 29.13596272 100.4422292 30.9375 102.5625 C34.04345301 106.09868938 36.93032204 108.65993517 41 111 C43.97 108.36 46.94 105.72 50 103 C46.83642684 99.1133244 43.63330455 95.46431364 40 92 C39.36707031 91.38382812 38.73414063 90.76765625 38.08203125 90.1328125 C37.05142578 89.16988281 37.05142578 89.16988281 36 88.1875 C35.360625 87.58292969 34.72125 86.97835937 34.0625 86.35546875 C30.4478617 83.97993941 26.38236486 84.34242761 23 87 Z M82.45703125 90.3046875 C81.45035269 91.51917906 80.47800996 92.76266263 79.53515625 94.02734375 C77.98281267 96.02208551 76.38124874 97.51710418 74.4375 99.125 C69.93888087 102.86730107 66.02478963 106.96286348 62.1875 111.375 C58.94742402 115.05523725 55.53173208 118.28781815 51.80078125 121.4609375 C47.90480008 124.79069147 44.54355139 128.51717005 41.1875 132.375 C37.9548377 136.04681642 34.55004959 139.27530173 30.82421875 142.4375 C27.41462814 145.35792022 24.48987377 148.26518935 22 152 C22.32126128 154.63434254 22.81355048 156.62710097 24 159 C27.13810062 159.93592475 28.83750711 160.41035807 32 160 C35.09793941 158.0765541 37.49435281 155.63065778 40 153 C40.825 152.21625 41.65 151.4325 42.5 150.625 C44.6953259 148.31990781 46.78428051 145.96162064 48.875 143.5625 C51.86248738 140.16992958 54.94705415 137.18929005 58.42578125 134.3125 C62.47368706 130.93757109 65.89189662 126.99864217 69.375 123.0625 C72.54990886 119.50786782 75.77830281 116.31098461 79.453125 113.28515625 C84.80329023 108.84019574 91.76302039 102.71093883 94 96 C93.13438754 92.76797721 93.13438754 92.76797721 91 90 C87.66777384 88.67968397 85.40080175 87.81552459 82.45703125 90.3046875 Z M-31.15625 178.8515625 C-31.7646875 179.56054688 -32.373125 180.26953125 -33 181 C-33.6290625 181.70898438 -34.258125 182.41796875 -34.90625 183.1484375 C-36.07703496 184.48293392 -37.23043266 185.83304934 -38.359375 187.203125 C-40.08632224 189.0945434 -41.91012441 190.52800067 -44 192 C-43.37805776 198.35269573 -42.03061135 204.25077611 -40.25 210.375 C-40.01023438 211.27605469 -39.77046875 212.17710937 -39.5234375 213.10546875 C-38.20992041 218.13506624 -38.20992041 218.13506624 -34.58203125 221.54296875 C-33.72996094 221.69378906 -32.87789062 221.84460938 -32 222 C-31.25621094 222.17402344 -30.51242188 222.34804688 -29.74609375 222.52734375 C-28.10313594 222.81923981 -26.45987331 223.10942243 -24.81640625 223.3984375 C-22 224 -22 224 -18.96484375 225.0390625 C-13.31840809 227.08550218 -13.31840809 227.08550218 -7.70703125 225.9140625 C-5.56362211 224.08159279 -3.80022517 222.16960182 -2 220 C-1.37222656 219.30132812 -0.74445313 218.60265625 -0.09765625 217.8828125 C1.07379571 216.57019191 2.22849056 215.24226003 3.359375 213.89453125 C5 212 5 212 7.265625 210.23046875 C9.37206796 208.01391581 9.37206796 208.01391581 8.875 204.53125 C8.61143313 203.18170711 8.31801036 201.83776041 8 200.5 C7.75963013 199.44184082 7.75963013 199.44184082 7.5144043 198.36230469 C7.17967443 196.92454318 6.83422078 195.48923564 6.47802734 194.05664062 C6.04587342 192.19736348 5.7434129 190.3091095 5.45703125 188.421875 C4.75548933 184.96943839 4.1422692 182.80998947 2 180 C-2.59839953 177.91553187 -7.03495663 177.03518477 -12.00830078 176.32470703 C-14 176 -14 176 -17.21484375 175.08984375 C-23.65363005 173.29276314 -26.50238961 174.02604333 -31.15625 178.8515625 Z " fill="#8A89D2" transform="translate(189,63)"/>
<path d="M0 0 C3.67737611 0.55280817 5.02346555 1.81937808 7.3125 4.6875 C10.12542768 8.06784228 13.05693292 10.84681151 16.4453125 13.6328125 C18.59355976 15.52197466 20.22299067 17.76440762 22 20 C23.0665761 20.91572042 24.1507967 21.81121205 25.25 22.6875 C26.1575 23.450625 27.065 24.21375 28 25 C28 25.66 28 26.32 28 27 C28.98613281 26.67773438 29.97226562 26.35546875 30.98828125 26.0234375 C35.03628869 24.87441755 38.99436469 24.61589387 43.1875 24.625 C43.92782471 24.62588623 44.66814941 24.62677246 45.4309082 24.62768555 C59.31852421 24.92367823 70.47595586 31.2277723 80 41 C82.31030866 43.8608503 84.26858231 46.7573449 86 50 C86.34417969 50.60835693 86.68835938 51.21671387 87.04296875 51.84350586 C90.41832133 58.41605085 90.47822052 64.28138769 90.25 71.5625 C90.23195313 72.66658203 90.21390625 73.77066406 90.1953125 74.90820312 C90.14859048 77.60639981 90.0831014 80.30272035 90 83 C86.35627855 82.2320618 85.08601317 81.31202626 82.75 78.375 C79.70857018 74.72658955 76.46614013 71.6640476 72.8515625 68.59375 C69.65844517 65.84524394 66.70798447 62.98612122 64.25 59.5625 C61.94299465 57.58489203 61.94299465 57.58489203 58.3125 58.5 C57.53777344 58.74363281 56.76304687 58.98726562 55.96484375 59.23828125 C53.43974629 59.8870217 51.45081391 60.11576062 48.87890625 60.23046875 C44.16135713 60.61387927 39.84472087 61.04080973 36 64 C31.28837565 71.64629323 28.33021032 82.98854601 29 92 C30.7756885 94.1634335 30.7756885 94.1634335 33.1875 96 C34.01378906 96.6909375 34.84007812 97.381875 35.69140625 98.09375 C36.45324219 98.7228125 37.21507812 99.351875 38 100 C41.70426168 103.52786827 44.99559352 107.29490857 48.25390625 111.23046875 C50.05948501 113.06028347 51.65028543 113.99738656 54 115 C54 116.32 54 117.64 54 119 C44.26685856 121.15905105 35.43457629 119.97182664 26 117 C25.21753906 116.75636719 24.43507813 116.51273437 23.62890625 116.26171875 C11.4628367 111.68588867 3.81535177 101.08648613 -2 90 C-3.33187776 86.00436673 -3.40517887 82.18666661 -3.625 78 C-3.6780127 77.14220947 -3.73102539 76.28441895 -3.78564453 75.40063477 C-4.03448248 70.68029485 -3.86499248 66.5864512 -2.875 61.9375 C-2.41607787 59.43295536 -2.41607787 59.43295536 -3 57 C-6.21455031 53.05020681 -10.00460867 50.12173243 -14 47 C-17.60830152 43.54737251 -20.96504432 39.89201762 -24.3125 36.1875 C-25.19550781 35.21167969 -26.07851563 34.23585937 -26.98828125 33.23046875 C-27.65214844 32.49441406 -28.31601563 31.75835937 -29 31 C-27.14001639 27.11094335 -25.07299207 24.07299207 -22 21 C-18.9375 20.3125 -18.9375 20.3125 -16 21 C-14.64613064 22.65002828 -13.31321858 24.3174387 -12 26 C-7.90798449 27.1968026 -7.90798449 27.1968026 -4 26 C-3.23942484 23.00840437 -2.74056035 21.00839589 -3 18 C-4.04461012 16.23417478 -4.04461012 16.23417478 -5.5 14.75 C-6.325 13.8425 -7.15 12.935 -8 12 C-7.7685766 8.35694772 -5.83369598 6.36403197 -3.4375 3.75 C-2.79683594 3.04359375 -2.15617187 2.3371875 -1.49609375 1.609375 C-1.00238281 1.07828125 -0.50867188 0.5471875 0 0 Z " fill="#E85999" transform="translate(284,191)"/>
<path d="M0 0 C29.8 0 29.8 0 35.75 4.25 C39.76795527 9.87513738 39.68555686 17.37977184 39 24 C37.6168113 27.08073848 36.3615433 28.6384567 34 31 C34.804375 31.598125 35.60875 32.19625 36.4375 32.8125 C39.18522032 35.15811491 39.87184216 36.41763898 40.16113281 39.98950195 C40.20671707 42.43064488 40.23525867 44.87096732 40.25 47.3125 C40.270625 48.15490234 40.29125 48.99730469 40.3125 49.86523438 C40.34428483 54.94683483 40.05355599 58.71838345 37 63 C25.53207037 67.58717185 12.35133821 65 0 65 C0 43.55 0 22.1 0 0 Z M18 11 C18 15.95 18 20.9 18 26 C19.32 25.67 20.64 25.34 22 25 C22 21.04 22 17.08 22 13 C20.68 12.34 19.36 11.68 18 11 Z M18 36 C18 41.94 18 47.88 18 54 C19.32 53.34 20.64 52.68 22 52 C22 47.05 22 42.1 22 37 C20.68 36.67 19.36 36.34 18 36 Z " fill="#A380ED" transform="translate(208,333)"/>
<path d="M0 0 C4.22938829 2.55393468 6.80660552 5.60731656 8.375 10.3125 C8.47532205 11.70747128 8.52321351 13.10661257 8.53613281 14.50512695 C8.54574036 15.34642654 8.5553479 16.18772614 8.56524658 17.05451965 C8.56949646 17.96078598 8.57374634 18.86705231 8.578125 19.80078125 C8.58382507 20.7367363 8.58952515 21.67269135 8.59539795 22.63700867 C8.60484483 24.61826447 8.61138069 26.59953597 8.61523438 28.58081055 C8.62492937 31.60298286 8.65595138 34.62447197 8.6875 37.64648438 C8.69403139 39.57291264 8.69928132 41.49934575 8.703125 43.42578125 C8.7154718 44.32597488 8.7278186 45.22616852 8.74053955 46.15364075 C8.72237827 51.30202942 8.24925271 54.85844282 5.375 59.3125 C0.16481503 64.2484647 -4.4608579 65.60186762 -11.5625 65.625 C-12.74714844 65.64175781 -13.93179687 65.65851563 -15.15234375 65.67578125 C-19.64724665 65.20556081 -22.94568019 63.88013109 -26.26953125 60.77734375 C-32.8584685 52.16104119 -31.78824252 42.32919206 -31.75 31.8125 C-31.75386719 30.74902344 -31.75773438 29.68554688 -31.76171875 28.58984375 C-31.73802286 9.27769334 -31.73802286 9.27769334 -26.625 3.3125 C-19.60659767 -3.02118015 -8.65635893 -4.05817961 0 0 Z M-11.625 9.3125 C-14.22249344 13.20874016 -13.93075629 16.51050621 -13.92578125 21.03125 C-13.93006638 21.88553589 -13.9343515 22.73982178 -13.93876648 23.61999512 C-13.94450746 25.42552809 -13.94501174 27.2310842 -13.94067383 29.03662109 C-13.93751182 31.80215773 -13.96098227 34.56662674 -13.98632812 37.33203125 C-13.9886009 39.08593615 -13.98930471 40.83984393 -13.98828125 42.59375 C-13.997491 43.42193237 -14.00670074 44.25011475 -14.01618958 45.10339355 C-14.1250543 49.42853212 -14.1250543 49.42853212 -12.10173035 53.05456543 C-11.61440933 53.46968384 -11.12708832 53.88480225 -10.625 54.3125 C-9.43409045 53.34060605 -9.43409045 53.34060605 -9.50474548 51.55979919 C-9.50696609 50.79812943 -9.50918671 50.03645966 -9.51147461 49.25170898 C-9.51155014 48.39089218 -9.51162567 47.53007538 -9.51170349 46.64317322 C-9.51944542 45.24005638 -9.51944542 45.24005638 -9.52734375 43.80859375 C-9.5287587 42.85557877 -9.53017365 41.90256378 -9.53163147 40.92066956 C-9.53724848 37.86374835 -9.54980384 34.80689923 -9.5625 31.75 C-9.56751281 29.68294376 -9.57207609 27.61588638 -9.57617188 25.54882812 C-9.58722344 20.47002412 -9.60449945 15.3912743 -9.625 10.3125 C-10.285 9.9825 -10.945 9.6525 -11.625 9.3125 Z " fill="#D666D4" transform="translate(283.625,333.6875)"/>
<path d="M0 0 C5.28 0 10.56 0 16 0 C17.39004992 4.86517472 18.39456125 9.05558357 19 14 C19.66 14 20.32 14 21 14 C21.12375 12.80375 21.2475 11.6075 21.375 10.375 C21.77380462 6.51988866 22.70431438 3.88705687 24 0 C28.62 0 33.24 0 38 0 C37.7525 1.423125 37.505 2.84625 37.25 4.3125 C37.08371094 5.33601563 36.91742188 6.35953125 36.74609375 7.4140625 C36.19247324 10.07491917 35.56894552 12.31089566 34.66015625 14.8359375 C29.58369373 30.38709799 35.13039829 44.12743636 40.11035156 59.0234375 C41 62 41 62 41 65 C35.72 65 30.44 65 25 65 C20.84821429 50.66964286 20.84821429 50.66964286 20 46 C19.79503906 47.28777344 19.59007812 48.57554687 19.37890625 49.90234375 C19.10698348 51.58076363 18.83483649 53.2591472 18.5625 54.9375 C18.42779297 55.78763672 18.29308594 56.63777344 18.15429688 57.51367188 C18.02216797 58.32255859 17.89003906 59.13144531 17.75390625 59.96484375 C17.63345947 60.7137085 17.5130127 61.46257324 17.38891602 62.23413086 C17 64 17 64 16 65 C13.30345146 65.07319621 10.63308542 65.09242537 7.9375 65.0625 C7.17888672 65.05798828 6.42027344 65.05347656 5.63867188 65.04882812 C3.75908129 65.0370068 1.87953101 65.01907078 0 65 C0.36288306 59.52069588 1.090619 54.29783186 2.40234375 48.9609375 C6.15811805 33.20910799 5.9729552 21.56108082 0.63012695 6.22875977 C0 4 0 4 0 0 Z " fill="#EA5894" transform="translate(295,333)"/>
<path d="M0 0 C12.54 0 25.08 0 38 0 C38 4.29 38 8.58 38 13 C34.7 13 31.4 13 28 13 C28 30.16 28 47.32 28 65 C22.06 65 16.12 65 10 65 C10 47.84 10 30.68 10 13 C6.7 13 3.4 13 0 13 C0 8.71 0 4.42 0 0 Z " fill="#3CAEEC" transform="translate(153,333)"/>
<path d="M0 0 C0.90878906 0.17273438 1.81757813 0.34546875 2.75390625 0.5234375 C8.261415 1.92072967 8.261415 1.92072967 10.109375 4.62109375 C10.94003969 6.72742206 11.47632359 8.79758785 12 11 C12.56084845 12.70887625 13.12338485 14.41719933 13.6875 16.125 C14.76535583 19.86309573 15.65084946 23.09490327 15 27 C13.125 29.375 13.125 29.375 11 31 C10.34 31 9.68 31 9 31 C8.79375 31.53625 8.5875 32.0725 8.375 32.625 C6.39077528 36.05229724 4.38701263 38.85659892 1 41 C-2.17845993 41.50254911 -4.90610462 40.77013511 -8 40 C-9.79244141 39.61908203 -9.79244141 39.61908203 -11.62109375 39.23046875 C-18.99418244 37.4570032 -18.99418244 37.4570032 -22 36 C-23.2734375 33.296875 -23.2734375 33.296875 -24 30 C-24.36480469 28.85402344 -24.72960937 27.70804688 -25.10546875 26.52734375 C-25.64107422 24.75037109 -25.64107422 24.75037109 -26.1875 22.9375 C-26.55230469 21.75027344 -26.91710937 20.56304687 -27.29296875 19.33984375 C-27.99679629 16.01513357 -28.07443403 14.18955024 -27 11 C-24.875 8.625 -24.875 8.625 -22 6 C-20.76701955 4.7537617 -19.53797601 3.50361846 -18.3125 2.25 C-12.58408196 -3.59273237 -7.63322352 -1.45144915 0 0 Z " fill="#F1526D" transform="translate(345,77)"/>
<path d="M0 0 C2.2890625 1.7421875 2.2890625 1.7421875 4.625 3.875 C5.40101563 4.57367188 6.17703125 5.27234375 6.9765625 5.9921875 C9 8 9 8 11 11 C10.86328125 13.92578125 10.86328125 13.92578125 10.3125 17.3125 C10.14363281 18.42238281 9.97476563 19.53226563 9.80078125 20.67578125 C8.93159578 24.28396095 8.0840393 26.91579807 6 30 C2.8203125 31.49609375 2.8203125 31.49609375 -0.875 32.4375 C-2.69644531 32.93056641 -2.69644531 32.93056641 -4.5546875 33.43359375 C-7.93891498 33.98995768 -9.80102648 34.14780445 -13 33 C-15.421875 31.22265625 -15.421875 31.22265625 -17.75 29.0625 C-18.52859375 28.35222656 -19.3071875 27.64195313 -20.109375 26.91015625 C-22 25 -22 25 -23 23 C-22.96255204 21.10167643 -22.84655306 19.20451925 -22.6875 17.3125 C-22.60886719 16.29800781 -22.53023437 15.28351563 -22.44921875 14.23828125 C-21.50257343 7.41420323 -21.50257343 7.41420323 -20 4 C-17.18881634 2.56660526 -15.10971506 1.75542346 -12.125 1 C-11.40441406 0.78472656 -10.68382812 0.56945312 -9.94140625 0.34765625 C-6.252226 -0.69183653 -3.63067154 -1.25025433 0 0 Z " fill="#40ADEC" transform="translate(178,91)"/>
<path d="M0 0 C92.73 0 185.46 0 281 0 C281 0.99 281 1.98 281 3 C188.27 3 95.54 3 0 3 C0 2.01 0 1.02 0 0 Z " fill="#9E7EBF" transform="translate(109,409)"/>
<path d="M0 0 C1.26328125 0.02707031 2.5265625 0.05414063 3.828125 0.08203125 C4.79234375 0.11683594 5.7565625 0.15164063 6.75 0.1875 C6.75 1.1775 6.75 2.1675 6.75 3.1875 C5.76 3.1875 4.77 3.1875 3.75 3.1875 C3.9975 4.095 4.245 5.0025 4.5 5.9375 C4.75 9.1875 4.75 9.1875 3.3125 11.5625 C-0.37122583 13.89852126 -2.93623202 13.47508453 -7.25 13.1875 C-6.92 13.8475 -6.59 14.5075 -6.25 15.1875 C-4.2554559 15.54159439 -4.2554559 15.54159439 -1.9375 15.625 C1.80233514 15.94657818 4.0060589 16.4435589 6.75 19.1875 C6.43161776 22.1325357 6.21350975 23.73784227 4.05078125 25.8359375 C1.22875105 27.49370057 -0.55918085 27.5575417 -3.8125 27.5 C-4.76253906 27.49613281 -5.71257812 27.49226563 -6.69140625 27.48828125 C-9.25 27.1875 -9.25 27.1875 -12.25 25.1875 C-12.50660094 22.10828868 -12.64431504 19.97613007 -11.25 17.1875 C-11.415 16.548125 -11.58 15.90875 -11.75 15.25 C-12.25 13.1875 -12.25 13.1875 -11.25 10.1875 C-11.311875 9.0325 -11.37375 7.8775 -11.4375 6.6875 C-11.25 3.1875 -11.25 3.1875 -9.69140625 1.48046875 C-6.34920793 -0.28955948 -3.75765622 -0.10437934 0 0 Z M-5.25 3.1875 C-5.91 3.8475 -6.57 4.5075 -7.25 5.1875 C-6.9314823 7.29570797 -6.9314823 7.29570797 -6.25 9.1875 C-3.20086772 10.19861093 -3.20086772 10.19861093 -0.25 9.1875 C-0.25 7.5375 -0.25 5.8875 -0.25 4.1875 C-2.64719432 3.50791397 -2.64719432 3.50791397 -5.25 3.1875 Z M-6.25 19.1875 C-6.91 20.5075 -7.57 21.8275 -8.25 23.1875 C-3.19990405 24.12536082 -3.19990405 24.12536082 1.75 23.1875 C1.75 22.1975 1.75 21.2075 1.75 20.1875 C-0.95879335 18.83310332 -3.25933268 19.12248549 -6.25 19.1875 Z " fill="#D865D3" transform="translate(278.25,424.8125)"/>
<path d="M0 0 C2.475 0.495 2.475 0.495 5 1 C5.33 0.67 5.66 0.34 6 0 C13.29411765 -0.23529412 13.29411765 -0.23529412 17 1 C17.66 0.67 18.32 0.34 19 0 C25.37526008 -0.46365528 25.37526008 -0.46365528 27.7043457 1.26489258 C29.27897482 3.37359601 29.35173552 4.40639214 29.29296875 7.01171875 C29.28330078 7.76904297 29.27363281 8.52636719 29.26367188 9.30664062 C29.23853516 10.09232422 29.21339844 10.87800781 29.1875 11.6875 C29.16719727 12.88342773 29.16719727 12.88342773 29.14648438 14.10351562 C29.11117089 16.06929967 29.05736447 18.03473582 29 20 C27.68 20 26.36 20 25 20 C24.93941406 19.01257813 24.87882812 18.02515625 24.81640625 17.0078125 C24.69072266 15.08582031 24.69072266 15.08582031 24.5625 13.125 C24.44068359 11.21074219 24.44068359 11.21074219 24.31640625 9.2578125 C24.20793973 6.11699848 24.20793973 6.11699848 23 4 C21.35 4.66 19.7 5.32 18 6 C17.67 10.62 17.34 15.24 17 20 C15.35 20 13.7 20 12 20 C11.67 15.05 11.34 10.1 11 5 C9.68 5 8.36 5 7 5 C6.34 5 5.68 5 5 5 C4.67 9.95 4.34 14.9 4 20 C2.68 20 1.36 20 0 20 C0 13.4 0 6.8 0 0 Z " fill="#F4505F" transform="translate(342,425)"/>
<path d="M0 0 C1.32 0 2.64 0 4 0 C4.33 3.63 4.66 7.26 5 11 C5.33 10.67 5.66 10.34 6 10 C13.19960751 9.40986824 13.19960751 9.40986824 16.23046875 11.64453125 C18.46069012 14.61323652 18.53682868 16.31713211 18.5 20 C18.5103125 21.03125 18.520625 22.0625 18.53125 23.125 C18 26 18 26 14 30 C9.38 30 4.76 30 0 30 C0 20.1 0 10.2 0 0 Z M5.8125 14 C3.74683578 16.27935363 3.64800715 17.01792998 3.5 20 C3.6521132 22.94990953 3.78366467 23.74503336 5.75 26.0625 C7.92193924 27.16030924 7.92193924 27.16030924 10.125 26.875 C12.35325825 26.03281253 12.35325825 26.03281253 14 23 C14.36264537 19.59113355 14.35778767 17.6474253 12.6875 14.625 C10.2626919 12.2899996 8.76957253 12.64819541 5.8125 14 Z " fill="#8C8AED" transform="translate(207,415)"/>
<path d="M0 0 C2.81297472 1.64661935 3.65375268 2.75298896 4.51953125 5.87109375 C5.24018503 10.0603888 5.24822141 13.25296432 3 17 C1.12703975 19.17263389 -0.25726849 19.8859476 -3.0859375 20.3203125 C-7.02307814 20.51651552 -9.46213062 20.2801403 -13 18.4375 C-15.6703029 15.18306835 -16 13.19728965 -16 9 C-13.64253121 0.14163242 -8.37235801 -1.07056381 0 0 Z M-9.1875 4.625 C-11.22566095 6.91179913 -11.22566095 6.91179913 -11.5 10 C-11.20730025 13.07061639 -11.20730025 13.07061639 -9.3125 15.4375 C-7.102406 17.25607885 -7.102406 17.25607885 -4.375 16.9375 C-1.67710239 16.13344454 -1.67710239 16.13344454 0 13 C0.47654701 9.26704845 0.50050246 7.65583081 -1.8125 4.625 C-4.83389669 2.38053389 -6.16610331 2.38053389 -9.1875 4.625 Z " fill="#EE5581" transform="translate(332,425)"/>
<path d="M0 0 C2.81297472 1.64661935 3.65375268 2.75298896 4.51953125 5.87109375 C5.24018503 10.0603888 5.24822141 13.25296432 3 17 C1.12703975 19.17263389 -0.25726849 19.8859476 -3.0859375 20.3203125 C-7.02307814 20.51651552 -9.46213062 20.2801403 -13 18.4375 C-15.6703029 15.18306835 -16 13.19728965 -16 9 C-13.64253121 0.14163242 -8.37235801 -1.07056381 0 0 Z M-9.1875 4.625 C-11.22566095 6.91179913 -11.22566095 6.91179913 -11.5 10 C-11.20730025 13.07061639 -11.20730025 13.07061639 -9.3125 15.4375 C-7.102406 17.25607885 -7.102406 17.25607885 -4.375 16.9375 C-1.67710239 16.13344454 -1.67710239 16.13344454 0 13 C0.47654701 9.26704845 0.50050246 7.65583081 -1.8125 4.625 C-4.83389669 2.38053389 -6.16610331 2.38053389 -9.1875 4.625 Z " fill="#B578ED" transform="translate(244,425)"/>
<path d="M0 0 C2.81297472 1.64661935 3.65375268 2.75298896 4.51953125 5.87109375 C5.24018503 10.0603888 5.24822141 13.25296432 3 17 C1.12703975 19.17263389 -0.25726849 19.8859476 -3.0859375 20.3203125 C-7.02307814 20.51651552 -9.46213062 20.2801403 -13 18.4375 C-15.6703029 15.18306835 -16 13.19728965 -16 9 C-13.64253121 0.14163242 -8.37235801 -1.07056381 0 0 Z M-9.1875 4.625 C-11.22566095 6.91179913 -11.22566095 6.91179913 -11.5 10 C-11.20730025 13.07061639 -11.20730025 13.07061639 -9.3125 15.4375 C-7.102406 17.25607885 -7.102406 17.25607885 -4.375 16.9375 C-1.67710239 16.13344454 -1.67710239 16.13344454 0 13 C0.47654701 9.26704845 0.50050246 7.65583081 -1.8125 4.625 C-4.83389669 2.38053389 -6.16610331 2.38053389 -9.1875 4.625 Z " fill="#31B4EC" transform="translate(171,425)"/>
<path d="M0 0 C2.81297472 1.64661935 3.65375268 2.75298896 4.51953125 5.87109375 C5.24018503 10.0603888 5.24822141 13.25296432 3 17 C1.12703975 19.17263389 -0.25726849 19.8859476 -3.0859375 20.3203125 C-7.02307814 20.51651552 -9.46213062 20.2801403 -13 18.4375 C-15.6703029 15.18306835 -16 13.19728965 -16 9 C-13.64253121 0.14163242 -8.37235801 -1.07056381 0 0 Z M-9.1875 4.625 C-11.22566095 6.91179913 -11.22566095 6.91179913 -11.5 10 C-11.20730025 13.07061639 -11.20730025 13.07061639 -9.3125 15.4375 C-7.102406 17.25607885 -7.102406 17.25607885 -4.375 16.9375 C-1.67710239 16.13344454 -1.67710239 16.13344454 0 13 C0.47654701 9.26704845 0.50050246 7.65583081 -1.8125 4.625 C-4.83389669 2.38053389 -6.16610331 2.38053389 -9.1875 4.625 Z " fill="#15C0E9" transform="translate(148,425)"/>
<path d="M0 0 C1.22589844 0.01353516 1.22589844 0.01353516 2.4765625 0.02734375 C3.41628906 0.04474609 3.41628906 0.04474609 4.375 0.0625 C4.705 1.3825 5.035 2.7025 5.375 4.0625 C2.405 4.0625 -0.565 4.0625 -3.625 4.0625 C-1.2864804 7.57027939 0.63913448 8.27239777 4.375 10.0625 C5.035 10.7225 5.695 11.3825 6.375 12.0625 C6.1875 15.0625 6.1875 15.0625 5.375 18.0625 C2.24088698 20.15190868 1.40049528 20.33614412 -2.1875 20.3125 C-3.36505859 20.32023437 -3.36505859 20.32023437 -4.56640625 20.328125 C-6.625 20.0625 -6.625 20.0625 -8.625 18.0625 C-8.625 17.0725 -8.625 16.0825 -8.625 15.0625 C-5.325 15.3925 -2.025 15.7225 1.375 16.0625 C0.66495535 12.78393001 0.66495535 12.78393001 -2.5625 11.5 C-3.573125 11.025625 -4.58375 10.55125 -5.625 10.0625 C-6.285 9.4025 -6.945 8.7425 -7.625 8.0625 C-7.375 4.5 -7.375 4.5 -6.625 1.0625 C-4.21954362 -0.14022819 -2.67503047 -0.03821472 0 0 Z " fill="#689BED" transform="translate(196.625,424.9375)"/>
<path d="M0 0 C0.99 0.66 1.98 1.32 3 2 C2.67 2.99 2.34 3.98 2 5 C0.906875 4.773125 -0.18625 4.54625 -1.3125 4.3125 C-4.82616349 3.67232993 -4.82616349 3.67232993 -6.9375 5.0625 C-8.47555213 7.86718329 -8.39310741 9.85514075 -8 13 C-7.14780077 15.10242444 -7.14780077 15.10242444 -5 16 C-2.2367396 15.93459739 0.26205073 15.49372856 3 15 C2.625 16.9375 2.625 16.9375 2 19 C-1.47410101 20.73705051 -5.20184448 20.44525447 -9 20 C-11.5625 18.6875 -11.5625 18.6875 -13 16 C-13.85837398 10.6351626 -13.92770932 6.47853673 -11 1.8125 C-6.89389782 -0.66827007 -4.74999478 -0.53628973 0 0 Z " fill="#E85AA3" transform="translate(312,425)"/>
<path d="M0 0 C1.32 0 2.64 0 4 0 C4 1.65 4 3.3 4 5 C5.98 5 7.96 5 10 5 C10 5.99 10 6.98 10 8 C8.02 8 6.04 8 4 8 C4.33 12.62 4.66 17.24 5 22 C6.65 21.67 8.3 21.34 10 21 C9.67 22.32 9.34 23.64 9 25 C5.625 25.125 5.625 25.125 2 25 C0 23 0 23 -0.1953125 19.5234375 C-0.18201493 18.14049032 -0.15816232 16.75761346 -0.125 15.375 C-0.11597656 14.66859375 -0.10695313 13.9621875 -0.09765625 13.234375 C-0.07407603 11.48943902 -0.03820461 9.74467705 0 8 C-1.32 8 -2.64 8 -4 8 C-4 7.01 -4 6.02 -4 5 C-2.68 5 -1.36 5 0 5 C0 3.35 0 1.7 0 0 Z " fill="#12C2E9" transform="translate(120,420)"/>
<path d="M0 0 C1.32 0 2.64 0 4 0 C4 9.9 4 19.8 4 30 C2.68 30 1.36 30 0 30 C0 20.1 0 10.2 0 0 Z " fill="#4DA7ED" transform="translate(180,415)"/>
<path d="M0 0 C3.96 0 7.92 0 12 0 C12 1.32 12 2.64 12 4 C10.02 4 8.04 4 6 4 C4.89485234 7.31544299 4.67892369 10.20410111 4.4375 13.6875 C4.35371094 14.86699219 4.26992188 16.04648437 4.18359375 17.26171875 C4.12300781 18.16535156 4.06242187 19.06898438 4 20 C2.68 20 1.36 20 0 20 C0 13.4 0 6.8 0 0 Z " fill="#CB6DE6" transform="translate(254,425)"/>
<path d="M0 0 C1.65 0 3.3 0 5 0 C5 1.65 5 3.3 5 5 C3.35 5 1.7 5 0 5 C0 3.35 0 1.7 0 0 Z " fill="#E25FBA" transform="translate(289,440)"/>
</svg>
