<?xml version="1.0" encoding="UTF-8"?>
<svg version="1.1" xmlns="http://www.w3.org/2000/svg" width="1024" height="1024">
<path d="M0 0 C1.27002869 -0.00705963 2.54005737 -0.01411926 3.84857178 -0.02139282 C7.92252683 -0.0389023 11.9963277 -0.04608475 16.0703125 -0.046875 C16.76515495 -0.04716957 17.45999741 -0.04746414 18.17589569 -0.04776764 C38.99489132 -0.04919335 59.55593576 0.15930524 80.1953125 3.203125 C80.88641113 3.30258423 81.57750977 3.40204346 82.28955078 3.5045166 C130.86952923 10.5034642 178.31299388 23.09636841 222.80615234 44.08056641 C225.2887776 45.24704003 227.78216261 46.38800245 230.27734375 47.52734375 C250.46952989 56.83589234 269.62302047 68.00075542 288.1953125 80.203125 C289.20053955 80.86296387 289.20053955 80.86296387 290.22607422 81.53613281 C309.83074874 94.50200699 328.32391219 109.10497175 345.68359375 124.9375 C347.05014109 126.17015546 348.42294989 127.39653326 349.82543945 128.58813477 C355.87500868 133.75359064 361.48546043 139.34134724 367.09545898 144.97290039 C368.7545857 146.63738777 370.41899301 148.29645947 372.08398438 149.95507812 C377.66405865 155.53134927 383.107201 161.16870938 388.1953125 167.203125 C389.07206339 168.21298103 389.94962061 169.22213778 390.828125 170.23046875 C398.30413253 178.96028945 405.29665119 188.01281464 412.1953125 197.203125 C412.906875 198.14260986 412.906875 198.14260986 413.6328125 199.10107422 C460.27139105 260.72825844 490.83332581 334.48878926 503.4453125 410.578125 C503.56441986 411.28204376 503.68352722 411.98596252 503.8062439 412.71121216 C507.99401702 437.75614007 509.71662771 462.81758144 509.58642578 488.18261719 C509.56933497 491.53302729 509.57954077 494.88272166 509.59674358 498.23310757 C509.70598546 523.38743264 507.76573782 548.3116662 503.6328125 573.140625 C503.44964981 574.25830261 503.44964981 574.25830261 503.26278687 575.39855957 C492.13998508 642.43728364 466.47789256 706.45816574 429.1953125 763.203125 C428.75541992 763.87327637 428.31552734 764.54342773 427.86230469 765.23388672 C414.89643051 784.83856124 400.29346575 803.33172469 384.4609375 820.69140625 C383.22828204 822.05795359 382.00190424 823.43076239 380.81030273 824.83325195 C375.64484686 830.88282118 370.05709026 836.49327293 364.42553711 842.10327148 C362.76104973 843.7623982 361.10197803 845.42680551 359.44335938 847.09179688 C353.86708823 852.67187115 348.22972812 858.1150135 342.1953125 863.203125 C341.18545647 864.07987589 340.17629972 864.95743311 339.16796875 865.8359375 C330.43814805 873.31194503 321.38562286 880.30446369 312.1953125 887.203125 C311.56898926 887.6775 310.94266602 888.151875 310.29736328 888.640625 C243.87453271 938.90848065 164.51288936 969.39224981 82.34094238 980.9017334 C80.36932736 981.17868154 78.3989503 981.46440558 76.42871094 981.75097656 C37.06534131 987.24024047 -6.49778895 986.85526603 -45.8046875 981.203125 C-47.21454432 981.01217176 -48.62454451 980.82227491 -50.03466797 980.63330078 C-122.88492461 970.75279532 -192.34861478 944.5810014 -253.8046875 904.203125 C-254.47483887 903.76323242 -255.14499023 903.32333984 -255.83544922 902.87011719 C-275.44012374 889.90424301 -293.93328719 875.30127825 -311.29296875 859.46875 C-312.65951609 858.23609454 -314.03232489 857.00971674 -315.43481445 855.81811523 C-321.48438368 850.65265936 -327.09483543 845.06490276 -332.70483398 839.43334961 C-334.3639607 837.76886223 -336.02836801 836.10979053 -337.69335938 834.45117188 C-343.27343365 828.87490073 -348.716576 823.23754062 -353.8046875 817.203125 C-354.68143839 816.19326897 -355.55899561 815.18411222 -356.4375 814.17578125 C-363.91350753 805.44596055 -370.90602619 796.39343536 -377.8046875 787.203125 C-378.51625 786.26364014 -378.51625 786.26364014 -379.2421875 785.30517578 C-408.81823853 746.22403732 -431.37303973 702.27467175 -447.8046875 656.203125 C-448.14064941 655.27838379 -448.47661133 654.35364258 -448.82275391 653.40087891 C-465.26125448 607.9004558 -474.82781785 557.75645132 -475.0078125 509.3984375 C-475.01840195 507.49339447 -475.01840195 507.49339447 -475.02920532 505.54986572 C-475.0467148 501.47591067 -475.05389725 497.4021098 -475.0546875 493.328125 C-475.05498207 492.63328255 -475.05527664 491.93844009 -475.05558014 491.22254181 C-475.05700585 470.40354618 -474.84850726 449.84250174 -471.8046875 429.203125 C-471.65549866 428.16647705 -471.65549866 428.16647705 -471.5032959 427.10888672 C-464.5043483 378.52890827 -451.91144409 331.08544362 -430.92724609 286.59228516 C-429.76077247 284.1096599 -428.61981005 281.61627489 -427.48046875 279.12109375 C-418.17192016 258.92890761 -407.00705708 239.77541703 -394.8046875 221.203125 C-394.36479492 220.53297363 -393.92490234 219.86282227 -393.47167969 219.17236328 C-380.50580551 199.56768876 -365.90284075 181.07452531 -350.0703125 163.71484375 C-348.83765704 162.34829641 -347.61127924 160.97548761 -346.41967773 159.57299805 C-341.25422186 153.52342882 -335.66646526 147.91297707 -330.03491211 142.30297852 C-328.37042473 140.6438518 -326.71135303 138.97944449 -325.05273438 137.31445312 C-319.47646323 131.73437885 -313.83910312 126.2912365 -307.8046875 121.203125 C-306.79483147 120.32637411 -305.78567472 119.44881689 -304.77734375 118.5703125 C-296.04752305 111.09430497 -286.99499786 104.10178631 -277.8046875 97.203125 C-277.17836426 96.72875 -276.55204102 96.254375 -275.90673828 95.765625 C-236.82559982 66.18957397 -192.87623425 43.63477277 -146.8046875 27.203125 C-145.87994629 26.86716309 -144.95520508 26.53120117 -144.00244141 26.18505859 C-98.5020183 9.74655802 -48.35801382 0.17999465 0 0 Z " fill="#74326E" transform="translate(496.8046875,19.796875)"/>
<path d="M0 0 C1.52718407 -0.00786278 1.52718407 -0.00786278 3.08522034 -0.0158844 C5.23266694 -0.02229131 7.38014869 -0.0209849 9.52758789 -0.01245117 C12.80223458 -0.00394307 16.07513486 -0.03271943 19.34960938 -0.06445312 C21.44140573 -0.06606543 23.53320516 -0.06548705 25.625 -0.0625 C26.5981163 -0.07373398 27.5712326 -0.08496796 28.57383728 -0.09654236 C36.05501689 -0.0203486 40.35556044 1.56141523 45.87890625 6.80859375 C46.70390625 7.67484375 47.52890625 8.54109375 48.37890625 9.43359375 C49.53183525 10.49044533 50.69933981 11.53155745 51.87890625 12.55859375 C52.42546875 13.03554687 52.97203125 13.5125 53.53515625 14.00390625 C58.36012627 17.74530249 62.01606193 18.98533661 68.12890625 18.93359375 C68.83611816 18.93294922 69.54333008 18.93230469 70.27197266 18.93164062 C75.59319767 18.78040709 79.35040339 17.60398184 83.77734375 14.52734375 C85.37890625 13.43359375 85.37890625 13.43359375 87.37890625 13.43359375 C87.70890625 12.44359375 88.03890625 11.45359375 88.37890625 10.43359375 C90.41015625 9.3359375 90.41015625 9.3359375 92.87890625 8.37109375 C96.33947437 7.20657372 96.33947437 7.20657372 98.37890625 4.43359375 C104.95808107 1.10628141 111.75332625 1.01350785 118.96630859 1.07714844 C120.65352776 1.07408188 120.65352776 1.07408188 122.37483215 1.07095337 C126.07167127 1.06795966 129.76805803 1.08638488 133.46484375 1.10546875 C136.04879649 1.10852973 138.63275088 1.11040327 141.21670532 1.11114502 C146.62500785 1.11573974 152.03315178 1.12973525 157.44140625 1.15234375 C164.35330504 1.1811818 171.26510102 1.19156746 178.17705345 1.19602585 C184.79383094 1.20045522 191.41058214 1.21573204 198.02734375 1.23046875 C199.27992352 1.23234947 200.53250328 1.23423019 201.82304001 1.23616791 C205.39297114 1.24309113 208.96281283 1.25675239 212.53271484 1.27246094 C213.57306381 1.2735788 214.61341278 1.27469666 215.68528748 1.27584839 C225.49378747 1.33261871 234.84318656 2.08874465 244.37890625 4.43359375 C244.37890625 5.09359375 244.37890625 5.75359375 244.37890625 6.43359375 C245.61640625 6.51609375 246.85390625 6.59859375 248.12890625 6.68359375 C254.17028371 7.32916359 259.69632525 9.36632655 265.37890625 11.43359375 C265.37890625 12.09359375 265.37890625 12.75359375 265.37890625 13.43359375 C266.55453125 13.55734375 266.55453125 13.55734375 267.75390625 13.68359375 C272.49488226 14.66448534 277.11533423 16.10508926 281.37890625 18.43359375 C281.70890625 19.42359375 282.03890625 20.41359375 282.37890625 21.43359375 C283.03890625 21.51609375 283.69890625 21.59859375 284.37890625 21.68359375 C289.87325991 23.05718216 294.43100189 25.37984746 298.37890625 29.43359375 C299.95671875 30.45453125 299.95671875 30.45453125 301.56640625 31.49609375 C302.49453125 32.13546875 303.42265625 32.77484375 304.37890625 33.43359375 C304.37890625 34.09359375 304.37890625 34.75359375 304.37890625 35.43359375 C304.89453125 35.51609375 305.41015625 35.59859375 305.94140625 35.68359375 C311.46612859 37.38350832 315.09438483 39.80540448 318.37890625 44.43359375 C320.04169952 45.44002125 321.70874109 46.43944782 323.37890625 47.43359375 C324.53263869 48.55436241 325.68214975 49.68062364 326.7890625 50.84765625 C329.72954676 53.78091573 332.93132489 56.43932899 336.07421875 59.15234375 C338.38194375 61.43660036 339.78961521 63.62212861 341.37890625 66.43359375 C343.02258765 68.12293297 344.69319385 69.78619299 346.37890625 71.43359375 C348.75386165 74.06439914 351.06612576 76.74811353 353.37890625 79.43359375 C353.93191406 80.07039063 354.48492188 80.7071875 355.0546875 81.36328125 C362.37890625 89.83247712 362.37890625 89.83247712 362.37890625 92.43359375 C363.36890625 92.76359375 364.35890625 93.09359375 365.37890625 93.43359375 C369.37890625 98.80502232 369.37890625 98.80502232 369.37890625 101.43359375 C370.36890625 101.76359375 371.35890625 102.09359375 372.37890625 102.43359375 C373.39543023 104.14897796 374.40960022 105.86870277 375.31640625 107.64453125 C376.30678955 109.48339623 376.30678955 109.48339623 377.8359375 110.875 C379.68852894 112.74635186 380.80149023 114.69037595 382.06640625 116.99609375 C382.50339844 117.78113281 382.94039062 118.56617188 383.390625 119.375 C384.37890625 121.43359375 384.37890625 121.43359375 384.37890625 123.43359375 C385.03890625 123.43359375 385.69890625 123.43359375 386.37890625 123.43359375 C388.60814402 127.76093766 388.30361178 130.71759557 387.37890625 135.43359375 C386.38890625 135.76359375 385.39890625 136.09359375 384.37890625 136.43359375 C384.04890625 137.42359375 383.71890625 138.41359375 383.37890625 139.43359375 C378.99091943 143.46579785 375.73177735 144.57098355 369.87890625 144.62109375 C369.12609375 144.63527344 368.37328125 144.64945313 367.59765625 144.6640625 C365.13026452 144.40776653 363.51534369 143.66204528 361.37890625 142.43359375 C361.37890625 141.77359375 361.37890625 141.11359375 361.37890625 140.43359375 C360.54359375 140.09328125 360.54359375 140.09328125 359.69140625 139.74609375 C356.74271589 138.07251274 354.77597612 135.83066362 352.37890625 133.43359375 C351.2278147 132.5788752 350.06027758 131.74594671 348.87890625 130.93359375 C344.72790944 128.05844444 341.42947988 124.5671074 338.00390625 120.87109375 C334.96993885 118.05383831 332.02845114 116.36570575 328.37890625 114.43359375 C328.37890625 113.77359375 328.37890625 113.11359375 328.37890625 112.43359375 C327.69828125 112.18609375 327.01765625 111.93859375 326.31640625 111.68359375 C322.81025542 110.19161467 319.66270257 108.36523864 316.37890625 106.43359375 C316.37890625 105.77359375 316.37890625 105.11359375 316.37890625 104.43359375 C315.51265625 104.16546875 314.64640625 103.89734375 313.75390625 103.62109375 C310.46098661 102.46247388 307.4676275 101.05149536 304.37890625 99.43359375 C304.37890625 98.77359375 304.37890625 98.11359375 304.37890625 97.43359375 C303.24453125 97.16546875 302.11015625 96.89734375 300.94140625 96.62109375 C296.3327017 95.47510103 291.86287486 93.9905273 287.37890625 92.43359375 C287.37890625 91.77359375 287.37890625 91.11359375 287.37890625 90.43359375 C286.23679687 90.30082031 285.0946875 90.16804688 283.91796875 90.03125 C280.99542029 89.66769472 278.10912553 89.22330084 275.21484375 88.6796875 C266.39133739 87.05086941 257.73335384 86.1004705 248.75390625 85.99609375 C247.85462402 85.97409912 246.9553418 85.95210449 246.02880859 85.92944336 C240.38039782 85.94676977 236.29672274 86.96512721 231.27587891 89.57397461 C229.37890625 90.43359375 229.37890625 90.43359375 226.37890625 90.43359375 C225.97671875 91.33078125 225.97671875 91.33078125 225.56640625 92.24609375 C224.37973219 94.43207229 223.28291512 95.84691969 221.37890625 97.43359375 C220.71890625 97.43359375 220.05890625 97.43359375 219.37890625 97.43359375 C219.38112686 98.03858704 219.38334747 98.64358032 219.38563538 99.26690674 C219.40775055 105.56090708 219.42283896 111.8548964 219.43383789 118.14892578 C219.43886814 120.4982142 219.44569305 122.84749948 219.4543457 125.19677734 C219.46646843 128.57259901 219.47214765 131.9483793 219.4765625 135.32421875 C219.48172379 136.37538879 219.48688507 137.42655884 219.49220276 138.50958252 C219.49227829 139.49029724 219.49235382 140.47101196 219.49243164 141.48144531 C219.49465225 142.3430426 219.49687286 143.20463989 219.49916077 144.09234619 C219.38205454 146.37229931 219.13788799 148.28036847 218.37890625 150.43359375 C215.6701129 151.78799043 213.36957357 151.49860826 210.37890625 151.43359375 C210.43949219 152.59592529 210.50007812 153.75825684 210.5625 154.95581055 C210.7915638 159.37839529 211.0134246 163.80131986 211.23339844 168.22436523 C211.32851985 170.11801549 211.42544904 172.01157603 211.52441406 173.9050293 C212.22948099 187.42720574 212.50386863 200.89339967 212.37890625 214.43359375 C213.03890625 214.43359375 213.69890625 214.43359375 214.37890625 214.43359375 C214.8854826 222.77194381 215.38987233 231.11042241 215.89169979 239.44905949 C216.12494763 243.32376784 216.35886418 247.19843306 216.59448242 251.07299805 C219.58506259 300.27857924 219.58506259 300.27857924 219.44140625 319.87109375 C219.43689453 321.10279297 219.43238281 322.33449219 219.42773438 323.60351562 C219.41628138 326.54693479 219.40008621 329.49023153 219.37890625 332.43359375 C220.03890625 332.43359375 220.69890625 332.43359375 221.37890625 332.43359375 C223.30325162 350.8070414 223.93195358 369.14649527 224.3850708 387.59973145 C224.53393914 393.60188363 224.69535339 399.60372162 224.8555851 405.60557938 C224.89444021 407.06676946 224.93294432 408.52796893 224.97109032 409.9891777 C225.23951759 420.2576144 225.58405847 430.52012055 226.06556702 440.78111267 C226.4435617 449.00120291 226.47950695 457.20669236 226.37890625 465.43359375 C227.03890625 465.43359375 227.69890625 465.43359375 228.37890625 465.43359375 C228.4039624 466.42053223 228.42901855 467.4074707 228.45483398 468.42431641 C228.55042123 472.15568718 228.6502448 475.88693555 228.7512207 479.61816406 C228.79400744 481.22002256 228.83570978 482.82191046 228.8762207 484.42382812 C228.93531786 486.75269377 228.99857612 489.08141862 229.0625 491.41015625 C229.08756874 492.45014267 229.08756874 492.45014267 229.11314392 493.51113892 C229.24133524 498.00802946 229.52310869 502.47719761 229.86743164 506.96289062 C230.40252696 514.22558877 230.64694517 521.48107199 230.82446289 528.7588768 C230.88060925 531.05801737 230.9408323 533.35702295 231.00195312 535.65603638 C231.13109747 540.54013494 231.25530957 545.4243521 231.37890625 550.30859375 C231.52248932 555.97367487 231.66823975 561.6386872 231.81860352 567.30359268 C231.87690106 569.53647917 231.93172876 571.76943141 231.98632812 574.00241089 C232.16576551 580.98260543 232.44105473 587.94112427 232.90405273 594.90869141 C233.27406099 600.50172466 233.51891087 606.04831155 233.4765625 611.65234375 C233.47444008 612.78367737 233.47444008 612.78367737 233.47227478 613.93786621 C233.46682359 616.26982173 233.4543046 618.60166892 233.44140625 620.93359375 C233.43637186 622.54687358 233.43181244 624.16015497 233.42773438 625.7734375 C233.41690385 629.66019589 233.39975085 633.5468767 233.37890625 637.43359375 C234.03890625 637.43359375 234.69890625 637.43359375 235.37890625 637.43359375 C235.57619975 640.84976872 235.7600292 644.26653968 235.94140625 647.68359375 C235.99748047 648.65167969 236.05355469 649.61976563 236.11132812 650.6171875 C236.15966797 651.55175781 236.20800781 652.48632812 236.2578125 653.44921875 C236.30494385 654.30805664 236.3520752 655.16689453 236.40063477 656.05175781 C236.37957546 658.3602364 236.04097496 660.23115642 235.37890625 662.43359375 C234.71890625 662.43359375 234.05890625 662.43359375 233.37890625 662.43359375 C233.26933594 663.05105469 233.15976562 663.66851563 233.046875 664.3046875 C230.09355008 680.0797645 230.09355008 680.0797645 225.37890625 684.43359375 C224.69828125 685.32046875 224.01765625 686.20734375 223.31640625 687.12109375 C222.67703125 687.88421875 222.03765625 688.64734375 221.37890625 689.43359375 C220.71890625 689.43359375 220.05890625 689.43359375 219.37890625 689.43359375 C219.11078125 690.36171875 218.84265625 691.28984375 218.56640625 692.24609375 C217.4691338 695.191404 216.84533456 696.58377252 214.37890625 698.43359375 C213.71890625 698.43359375 213.05890625 698.43359375 212.37890625 698.43359375 C212.03859375 699.33078125 212.03859375 699.33078125 211.69140625 700.24609375 C210.02373184 703.02555111 208.17203509 703.83752013 205.37890625 705.43359375 C204.76015625 706.09359375 204.14140625 706.75359375 203.50390625 707.43359375 C199.62465663 711.08465222 195.64255468 712.43359375 190.37890625 712.43359375 C190.37890625 713.09359375 190.37890625 713.75359375 190.37890625 714.43359375 C181.31732453 717.20149508 172.61108435 717.76047279 163.19140625 717.80859375 C161.55389404 717.82889648 161.55389404 717.82889648 159.88330078 717.84960938 C152.61979183 717.81013974 146.27683788 716.7016192 139.37890625 714.43359375 C139.37890625 713.77359375 139.37890625 713.11359375 139.37890625 712.43359375 C138.18265625 712.16546875 136.98640625 711.89734375 135.75390625 711.62109375 C129.76501506 710.10799933 125.67667916 707.8700045 121.37890625 703.43359375 C120.17234375 702.72203125 120.17234375 702.72203125 118.94140625 701.99609375 C113.72833918 698.81739432 110.66486863 694.4720694 107.37890625 689.43359375 C106.89035156 688.98371094 106.40179688 688.53382813 105.8984375 688.0703125 C103.98106107 686.00506642 103.19984339 683.99457582 102.19140625 681.37109375 C101.84722656 680.49324219 101.50304687 679.61539063 101.1484375 678.7109375 C100.37890625 676.43359375 100.37890625 676.43359375 100.37890625 674.43359375 C99.71890625 674.43359375 99.05890625 674.43359375 98.37890625 674.43359375 C94.75418927 666.94251198 95.22856339 658.24785385 95.24609375 650.10546875 C95.24472916 649.10760345 95.24336456 648.10973816 95.24195862 647.08163452 C95.23992058 643.78225476 95.24630837 640.48296458 95.25390625 637.18359375 C95.25512482 636.03920837 95.25634338 634.894823 95.25759888 633.71575928 C95.30108991 598.39312903 95.78920429 563.05243721 96.87890625 527.74609375 C96.9142749 526.5854541 96.94964355 525.42481445 96.98608398 524.22900391 C97.20693829 517.93006527 97.66094908 511.69567895 98.37890625 505.43359375 C99.03890625 505.43359375 99.69890625 505.43359375 100.37890625 505.43359375 C100.37366943 504.50836914 100.36843262 503.58314453 100.36303711 502.62988281 C100.34566031 499.08853493 100.33329794 495.5472344 100.32397461 492.00585938 C100.31904571 490.49348217 100.31230223 488.98110943 100.3034668 487.46875 C100.25606619 479.12624312 100.35683227 470.82271874 100.82421875 462.4921875 C101.3402524 453.27466931 101.60987733 444.05611053 101.84375 434.828125 C101.8829017 433.31311928 101.92210194 431.79811481 101.96134949 430.28311157 C102.12203354 424.04066669 102.27992295 417.79816646 102.4284668 411.55541992 C102.87786689 392.78386368 103.57297904 374.13494759 105.37890625 355.43359375 C106.03890625 355.43359375 106.69890625 355.43359375 107.37890625 355.43359375 C107.37668564 354.75565262 107.37446503 354.07771149 107.37217712 353.37922668 C107.35005227 346.32272875 107.3349695 339.26624067 107.32397461 332.2097168 C107.31894612 329.57624918 107.3121225 326.94278436 107.3034668 324.30932617 C107.29133637 320.52391877 107.28566307 316.73854829 107.28125 312.953125 C107.27608871 311.77587357 107.27092743 310.59862213 107.26560974 309.38569641 C107.26553421 308.28493271 107.26545868 307.18416901 107.26538086 306.05004883 C107.26316025 305.08408279 107.26093964 304.11811676 107.25865173 303.12287903 C107.37797291 300.45446626 107.84728052 298.04611861 108.37890625 295.43359375 C108.4788305 293.69371941 108.53391959 291.95089441 108.55249023 290.20825195 C108.5660556 289.18136765 108.57962097 288.15448334 108.59359741 287.09648132 C108.60396027 285.98698624 108.61432312 284.87749115 108.625 283.734375 C108.65673217 281.32502924 108.68872549 278.91568691 108.72094727 276.50634766 C108.73634552 275.24091125 108.75174377 273.97547485 108.76760864 272.67169189 C109.00450253 253.61440108 109.37732536 234.59039384 110.44140625 215.55859375 C111.63099639 194.1841582 111.58030613 172.83465447 111.37890625 151.43359375 C108.40890625 150.44359375 108.40890625 150.44359375 105.37890625 149.43359375 C105.36432373 148.85504639 105.34974121 148.27649902 105.3347168 147.68041992 C105.01498727 132.29833062 105.01498727 132.29833062 101.37890625 117.43359375 C101.04890625 116.44359375 100.71890625 115.45359375 100.37890625 114.43359375 C99.71890625 114.43359375 99.05890625 114.43359375 98.37890625 114.43359375 C97.94578125 113.67046875 97.51265625 112.90734375 97.06640625 112.12109375 C95.14984174 109.06878731 93.49295062 108.14631815 90.37890625 106.43359375 C89.90453125 105.91796875 89.43015625 105.40234375 88.94140625 104.87109375 C84.10905184 100.42532769 77.00996091 101.09971629 70.87890625 101.12109375 C69.95464844 101.10498047 69.03039062 101.08886719 68.078125 101.07226562 C61.52855703 101.06758067 56.99629138 101.88891376 52.12890625 106.62109375 C51.55140625 107.21921875 50.97390625 107.81734375 50.37890625 108.43359375 C49.71890625 108.43359375 49.05890625 108.43359375 48.37890625 108.43359375 C48.13140625 108.96984375 47.88390625 109.50609375 47.62890625 110.05859375 C46.07298197 113.01484989 44.31012083 115.70717316 42.37890625 118.43359375 C41.88777344 119.14668701 41.39664063 119.85978027 40.890625 120.59448242 C36.90183308 123.51512487 32.88078992 122.94600461 28.06640625 122.859375 C26.55759888 122.85444283 26.55759888 122.85444283 25.01831055 122.84941101 C22.89332605 122.83899503 20.76836994 122.81905339 18.64355469 122.7902832 C15.391117 122.74625903 12.13941737 122.72885302 8.88671875 122.71679688 C6.82160394 122.70337026 4.75649821 122.6884466 2.69140625 122.671875 C1.23190552 122.6607946 1.23190552 122.6607946 -0.25708008 122.64949036 C-1.16482178 122.63665512 -2.07256348 122.62381989 -3.0078125 122.6105957 C-4.20216919 122.59582939 -4.20216919 122.59582939 -5.4206543 122.58076477 C-9.67182048 122.2964359 -11.73945607 121.55536791 -14.62109375 118.43359375 C-15.30171875 118.02109375 -15.98234375 117.60859375 -16.68359375 117.18359375 C-19.87192574 114.30381002 -20.45486342 110.37832634 -20.80942917 106.23025322 C-20.89434015 103.70033145 -20.91419574 101.17759017 -20.91162109 98.64624023 C-20.91833832 97.68925232 -20.92505554 96.7322644 -20.93197632 95.74627686 C-20.95089567 92.5990269 -20.95487685 89.4519907 -20.95703125 86.3046875 C-20.96346121 84.10946059 -20.97018972 81.91423453 -20.97720337 79.7190094 C-20.98915938 75.12523409 -20.99288569 70.53153391 -20.99169922 65.93774414 C-20.99149563 60.05419386 -21.01884699 54.17112442 -21.05324364 48.28768826 C-21.07548323 43.75720508 -21.07953773 39.22683841 -21.07847977 34.69630623 C-21.08083826 32.52699177 -21.08967569 30.35767421 -21.1051445 28.18841362 C-21.12475321 25.1557831 -21.11898719 22.12420034 -21.10693359 19.09155273 C-21.11817261 18.19839859 -21.12941162 17.30524445 -21.14099121 16.38502502 C-21.08579295 10.91628918 -20.29000482 7.75769472 -16.62109375 3.43359375 C-11.42009361 -0.28266888 -6.15104288 -0.01851757 0 0 Z " fill="#FEFDFE" transform="translate(355.62109375,196.56640625)"/>
<path d="M0 0 C0.00808685 0.549478 0.01617371 1.09895599 0.02450562 1.66508484 C0.39146803 26.15565232 0.81382981 50.55463234 2.77246094 74.97607422 C3.82536492 88.96885183 4.16743844 102.97237934 4 117 C4.66 117 5.32 117 6 117 C6.97584851 127.2159933 7.43507239 137.43815974 7.875 147.6875 C8.0456298 151.63547171 8.21755633 155.58338444 8.390625 159.53125 C8.46000778 161.11833015 8.46000778 161.11833015 8.53079224 162.73747253 C8.85119899 169.95361155 9.21018472 177.16709914 9.58891296 184.38040161 C11.52607806 221.29896766 12.43236977 258.02110996 12 295 C12.66 295 13.32 295 14 295 C14.04487549 295.90274658 14.08975098 296.80549316 14.13598633 297.7355957 C14.27683044 300.56633437 14.41786618 303.39706309 14.55908203 306.2277832 C14.73132967 309.68071115 14.90273066 313.13367998 15.07373047 316.58666992 C15.56449453 326.46590013 16.06829004 336.3442908 16.5934906 346.22175598 C16.8713549 351.45388852 17.14549438 356.68621404 17.41952515 361.91854858 C17.55513492 364.48848771 17.69248869 367.05833548 17.83169556 369.62808228 C18.6148393 384.09967803 19.22135533 398.50569742 19 413 C19.66 413 20.32 413 21 413 C23.19193269 469.64225431 23.19193269 469.64225431 23.25 488.1875 C23.25902344 489.34523926 23.26804687 490.50297852 23.27734375 491.69580078 C23.25820148 496.85703463 23.09736089 501.18106367 21 506 C20.34 506 19.68 506 19 506 C18.731875 506.9075 18.46375 507.815 18.1875 508.75 C17.09365038 511.74369369 16.19576514 513.71640425 14 516 C13.01 516 12.02 516 11 516 C10.87431641 516.90492188 10.87431641 516.90492188 10.74609375 517.828125 C9.77642271 520.65083232 8.60636234 521.25956347 6.0625 522.75 C5.35222656 523.17796875 4.64195312 523.6059375 3.91015625 524.046875 C2 525 2 525 0 525 C0 525.66 0 526.32 0 527 C-7.58155335 529.63706204 -14.7134834 530.3244382 -22.6875 530.375 C-24.00463989 530.39530273 -24.00463989 530.39530273 -25.34838867 530.41601562 C-31.39161756 530.3751715 -36.39523702 529.24394979 -42 527 C-42 526.34 -42 525.68 -42 525 C-42.886875 524.7525 -43.77375 524.505 -44.6875 524.25 C-50.88119236 521.9127576 -54.73504961 517.6407228 -58 512 C-58 511.34 -58 510.68 -58 510 C-58.66 510 -59.32 510 -60 510 C-66.04547519 502.44315602 -65.25334422 491.48253301 -65.046875 482.36328125 C-65.02736282 481.12763428 -65.00785065 479.8919873 -64.98774719 478.61889648 C-64.93143212 475.22799829 -64.86515907 471.83759 -64.79378128 468.44699478 C-64.73461682 465.56251446 -64.68315931 462.67791534 -64.63152027 459.79329205 C-64.46196226 450.35735969 -64.26290631 440.92215168 -64.05480194 431.48699951 C-63.99968369 428.98564526 -63.94514642 426.48427881 -63.89068604 423.98291016 C-63.00894571 383.63849209 -61.99976689 343.30719863 -60 303 C-59.34 303 -58.68 303 -58 303 C-58.01160156 301.80503906 -58.02320313 300.61007812 -58.03515625 299.37890625 C-58.04454495 297.77343908 -58.05364398 296.1679702 -58.0625 294.5625 C-58.07506836 293.3878418 -58.07506836 293.3878418 -58.08789062 292.18945312 C-58.09111328 291.40634766 -58.09433594 290.62324219 -58.09765625 289.81640625 C-58.10289307 289.10943604 -58.10812988 288.40246582 -58.11352539 287.67407227 C-58.01494795 285.35209648 -57.78867689 283.11569126 -57.50927734 280.81079102 C-56.94559001 275.93836003 -56.81309322 271.11217699 -56.75390625 266.2109375 C-56.72225731 264.3010212 -56.69034514 262.39110924 -56.65820312 260.48120117 C-56.63512085 258.98923721 -56.63512085 258.98923721 -56.61157227 257.46713257 C-56.35586805 241.3547456 -55.91867862 225.27601398 -55 209.1875 C-53.83789513 188.80278837 -53.3787791 168.4124979 -53 148 C-52.34 148 -51.68 148 -51 148 C-51.00752792 147.23958908 -51.01505585 146.47917816 -51.02281189 145.69572449 C-51.22808866 121.20135943 -50.543095 96.76719036 -49.66760254 72.29034424 C-49.52541667 68.26182705 -49.39052095 64.23307788 -49.25558567 60.20431232 C-49.12390076 56.29487037 -48.98829424 52.38557235 -48.85142326 48.47630882 C-48.78696705 46.62523274 -48.72357965 44.7741191 -48.66131783 42.92296791 C-48.57442499 40.36035444 -48.48238275 37.79797672 -48.38891602 35.2355957 C-48.35223061 34.11142242 -48.35223061 34.11142242 -48.31480408 32.96453857 C-48.16024744 28.89405005 -47.70683308 25.00731756 -47 21 C-46.86428399 19.27555142 -46.75826769 17.54848076 -46.68359375 15.8203125 C-46.64169922 14.8921875 -46.59980469 13.9640625 -46.55664062 13.0078125 C-46.51732422 12.05648438 -46.47800781 11.10515625 -46.4375 10.125 C-46.39431641 9.15046875 -46.35113281 8.1759375 -46.30664062 7.171875 C-46.20117726 4.78137198 -46.09905825 2.39077556 -46 0 C-39.9312332 -0.16755313 -33.86233729 -0.32811943 -27.79321289 -0.48217773 C-25.72805796 -0.53558831 -23.66295172 -0.59091695 -21.59790039 -0.64819336 C-18.63177998 -0.73013039 -15.66555359 -0.80519629 -12.69921875 -0.87890625 C-11.7741301 -0.90594131 -10.84904144 -0.93297638 -9.8959198 -0.96083069 C-9.03525406 -0.98092697 -8.17458832 -1.00102325 -7.2878418 -1.02172852 C-6.15199898 -1.05170677 -6.15199898 -1.05170677 -4.99320984 -1.08229065 C-3 -1 -3 -1 0 0 Z " fill="#75326E" transform="translate(542,356)"/>
<path d="M0 0 C1.5 4.5 1.5 4.5 3 9 C4.3153341 9.70151152 5.65117592 10.36525925 7 11 C8.75 12.5 8.75 12.5 10 14 C10 14.66 10 15.32 10 16 C11.65 16.66 13.3 17.32 15 18 C13.60846256 22.42761914 11.47928514 24.9556255 8 28 C7.34 28 6.68 28 6 28 C6 29.32 6 30.64 6 32 C4.02 32.99 2.04 33.98 0 35 C0.78697325 38.41021743 1.87119943 41.68885166 3 45 C3.66 45 4.32 45 5 45 C5.32613281 45.62648438 5.65226562 46.25296875 5.98828125 46.8984375 C6.42527344 47.71570313 6.86226563 48.53296875 7.3125 49.375 C7.95638672 50.59316406 7.95638672 50.59316406 8.61328125 51.8359375 C9.96778724 54.26834043 9.96778724 54.26834043 13 56 C14.09765625 57.69140625 14.09765625 57.69140625 15.0625 59.5625 C16.59476621 63.03054748 16.59476621 63.03054748 19 64 C19 64.66 19 65.32 19 66 C19.64066406 66.23074219 20.28132813 66.46148437 20.94140625 66.69921875 C23 68 23 68 23.71484375 70.20703125 C24.16963209 75.52885271 24.32057533 78.57256623 21 83 C20.28856912 84.98451771 19.61008664 86.98202112 19 89 C18.01 89 17.02 89 16 89 C15.71125 89.9075 15.4225 90.815 15.125 91.75 C14.23468224 94.32202908 13.28505587 96.61346766 12 99 C11.34 99 10.68 99 10 99 C9.8659375 99.72058594 9.731875 100.44117188 9.59375 101.18359375 C9.02722461 103.87086221 8.31071069 106.43985091 7.5 109.0625 C6.58621387 112.02773599 5.72472587 114.98263173 5 118 C4.01 118 3.02 118 2 118 C1.95101562 118.56847656 1.90203125 119.13695312 1.8515625 119.72265625 C1.73941406 120.88087891 1.73941406 120.88087891 1.625 122.0625 C1.55539062 122.81660156 1.48578125 123.57070313 1.4140625 124.34765625 C0.90250577 127.62451493 -0.08887409 130.81105932 -1 134 C-7.27 134.33 -13.54 134.66 -20 135 C-20 135.99 -20 136.98 -20 138 C-28.9853735 140.24113144 -37.72605107 142.41117785 -47 143 C-47 143.66 -47 144.32 -47 145 C-47.66 145 -48.32 145 -49 145 C-48.84152588 145.93336182 -48.68305176 146.86672363 -48.51977539 147.82836914 C-47.81480593 152.78738164 -47.76976124 157.74456268 -47.68359375 162.74609375 C-47.66281265 163.75720718 -47.64203156 164.76832062 -47.62062073 165.81007385 C-47.55557951 169.01915113 -47.49645273 172.22830568 -47.4375 175.4375 C-47.39427152 177.62175257 -47.35065589 179.80599752 -47.30664062 181.99023438 C-47.1999451 187.3267428 -47.09809691 192.66332696 -47 198 C-45.68 198.33 -44.36 198.66 -43 199 C-43 199.99 -43 200.98 -43 202 C-41.8553125 202.12246094 -40.710625 202.24492188 -39.53125 202.37109375 C-35.08504254 202.92686968 -30.82943731 203.92802708 -26.5 205.0625 C-25.77296875 205.24876953 -25.0459375 205.43503906 -24.296875 205.62695312 C-22.53012276 206.08026455 -20.76489225 206.5395002 -19 207 C-19 207.66 -19 208.32 -19 209 C-17.9790625 209.185625 -17.9790625 209.185625 -16.9375 209.375 C-13.5722588 210.09100877 -10.29986575 211.02945125 -7 212 C-7 212.66 -7 213.32 -7 214 C-5.02 214 -3.04 214 -1 214 C-0.32645501 215.43429001 0.33859701 216.87257057 1 218.3125 C1.37125 219.11300781 1.7425 219.91351562 2.125 220.73828125 C3 223 3 223 3 226 C3.66 226 4.32 226 5 226 C5.20496094 226.92683594 5.40992188 227.85367188 5.62109375 228.80859375 C5.89050781 230.00613281 6.15992188 231.20367188 6.4375 232.4375 C6.70433594 233.63246094 6.97117187 234.82742188 7.24609375 236.05859375 C7.70066748 238.8704686 7.70066748 238.8704686 9 240 C9.23287008 241.68183948 9.41264166 243.3712416 9.5625 245.0625 C9.64628906 245.98160156 9.73007812 246.90070313 9.81640625 247.84765625 C9.87699219 248.55792969 9.93757813 249.26820313 10 250 C10.99 250 11.98 250 13 250 C13.6708712 251.6232687 14.33657029 253.24867578 15 254.875 C15.556875 256.23238281 15.556875 256.23238281 16.125 257.6171875 C17 260 17 260 17 262 C17.66 262 18.32 262 19 262 C19.87202123 264.20268339 20.72245702 266.41013866 21.5625 268.625 C22.03816406 269.85476563 22.51382813 271.08453125 23.00390625 272.3515625 C24.39804054 277.45792105 23.84051818 280.47461516 21.3125 285.0625 C19.4932234 287.37347297 18.05073751 288.89045354 15.8125 290.6875 C12.78480031 292.75901706 12.78480031 292.75901706 12 296 C11.34 296 10.68 296 10 296 C9.896875 296.9075 9.79375 297.815 9.6875 298.75 C8.98703826 302.06127366 8.31974305 303.59103606 6 306 C5.01 306.33 4.02 306.66 3 307 C2.14025199 309.29294488 2.14025199 309.29294488 2 312 C3.28659163 313.37849103 4.62913085 314.70529025 6 316 C6.433125 317.11375 6.86625 318.2275 7.3125 319.375 C9.15279329 323.32822263 10.89911473 324.95607406 14.234375 327.59765625 C16.68594706 329.54481194 18.81712549 331.75968142 21 334 C21.825 334.78375 22.65 335.5675 23.5 336.375 C25.91379872 338.90948865 27.82314142 341.48621852 29.796875 344.359375 C31.0825623 346.19977305 31.0825623 346.19977305 33.3125 348.3125 C35 350 35 350 35 352 C36.32 352 37.64 352 39 352 C39 351.34 39 350.68 39 350 C40.7902061 349.32942113 42.58221489 348.6636531 44.375 348 C45.37273437 347.62875 46.37046875 347.2575 47.3984375 346.875 C50 346 50 346 52 346 C52 345.01 52 344.02 52 343 C52.91523438 342.75765625 53.83046875 342.5153125 54.7734375 342.265625 C56.55621094 341.76289062 56.55621094 341.76289062 58.375 341.25 C60.15003906 340.76273438 60.15003906 340.76273438 61.9609375 340.265625 C65.09230292 339.29342499 65.09230292 339.29342499 66.4140625 336.859375 C66.60742188 336.24578125 66.80078125 335.6321875 67 335 C68.65 335 70.3 335 72 335 C72.33 335.99 72.66 336.98 73 338 C74.84697374 338.60815184 74.84697374 338.60815184 77 339 C78.43362072 339.65140796 79.85101812 340.3396927 81.25 341.0625 C81.95640625 341.42472656 82.6628125 341.78695313 83.390625 342.16015625 C83.92171875 342.43730469 84.4528125 342.71445312 85 343 C85 343.66 85 344.32 85 345 C85.59167969 345.19335938 86.18335938 345.38671875 86.79296875 345.5859375 C90.9146645 346.94414719 94.9950524 348.32050585 99 350 C99 350.66 99 351.32 99 352 C99.58007812 352.19335938 100.16015625 352.38671875 100.7578125 352.5859375 C105.171875 354.05729167 109.5859375 355.52864583 114 357 C114 357.66 114 358.32 114 359 C114.94875 359.103125 115.8975 359.20625 116.875 359.3125 C120 360 120 360 122 363 C121.80810654 364.77719511 121.59875487 366.55350729 121.32421875 368.31982422 C120.91274253 371.72131968 120.80795989 375.11351717 120.71875 378.53515625 C120.69047119 379.56484024 120.69047119 379.56484024 120.66162109 380.61532593 C120.58551733 383.48993872 120.51674631 386.3647111 120.44775391 389.23950195 C120.39555104 391.35898603 120.33850906 393.47830367 120.28125 395.59765625 C120.25095703 396.85070557 120.22066406 398.10375488 120.18945312 399.39477539 C120.00098935 402.98117298 119.56308306 406.45479945 119 410 C118.34 410 117.68 410 117 410 C116.67 411.98 116.34 413.96 116 416 C114.68 416 113.36 416 112 416 C112 414.68 112 413.36 112 412 C111.34 412 110.68 412 110 412 C107.94194229 402.6416621 106.46920411 393.59441508 106 384 C105.236875 383.87625 104.47375 383.7525 103.6875 383.625 C101 383 101 383 98 381 C98 380.34 98 379.68 98 379 C97.44828125 378.88785156 96.8965625 378.77570313 96.328125 378.66015625 C93.59934789 377.88639227 91.27227057 376.73182306 88.75 375.4375 C87.85796875 374.98246094 86.9659375 374.52742188 86.046875 374.05859375 C85.37140625 373.70925781 84.6959375 373.35992188 84 373 C84 372.34 84 371.68 84 371 C83.154375 370.731875 82.30875 370.46375 81.4375 370.1875 C77.86145933 368.9521405 74.46139092 367.523012 71 366 C71 366.66 71 367.32 71 368 C69.73160474 368.50615298 68.46016898 369.00469099 67.1875 369.5 C66.12595703 369.91765625 66.12595703 369.91765625 65.04296875 370.34375 C63 371 63 371 60 371 C60 371.66 60 372.32 60 373 C58.234375 373.44140625 56.46875 373.8828125 54.703125 374.32421875 C53.97609375 374.50597656 53.2490625 374.68773437 52.5 374.875 C51.09375 375.2265625 49.6875 375.578125 48.28125 375.9296875 C47.58128906 376.10467773 46.88132812 376.27966797 46.16015625 376.45996094 C45.44730469 376.63817383 44.73445313 376.81638672 44 377 C43.23558594 377.19110352 42.47117187 377.38220703 41.68359375 377.57910156 C40.58724609 377.85318848 40.58724609 377.85318848 39.46875 378.1328125 C38.3240625 378.41898438 37.179375 378.70515625 36 379 C36 379.66 36 380.32 36 381 C28.25 382.125 28.25 382.125 26 381 C26 380.34 26 379.68 26 379 C25.443125 378.7525 24.88625 378.505 24.3125 378.25 C20.28164326 376.07115852 17.21844724 373.37321321 14.375 369.8125 C12.24199897 366.79133392 12.24199897 366.79133392 9 366 C7.64172029 364.35360035 6.30745749 362.68704193 5 361 C4.34 360.67 3.68 360.34 3 360 C2.690625 359.195625 2.38125 358.39125 2.0625 357.5625 C1.15452711 354.70136041 1.15452711 354.70136041 -2 353 C-2.495 351.515 -2.495 351.515 -3 350 C-4.65848177 348.98648336 -6.32665961 347.98879205 -8 347 C-9.70586575 345.37347684 -11.3777546 343.70993434 -13 342 C-13.66 341.34 -14.32 340.68 -15 340 C-15.4021875 338.7934375 -15.4021875 338.7934375 -15.8125 337.5625 C-17.32195132 334.30526295 -18.90270639 333.72872201 -22 332 C-26.92876861 328.01004446 -28.41000584 323.93339286 -30 318 C-30.99 318 -31.98 318 -33 318 C-33.19491452 316.54263913 -33.38069358 315.08405407 -33.5625 313.625 C-33.66691406 312.81289063 -33.77132812 312.00078125 -33.87890625 311.1640625 C-34 309 -34 309 -33 307 C-32.34 307 -31.68 307 -31 307 C-30.5978125 306.1646875 -30.5978125 306.1646875 -30.1875 305.3125 C-26.58181818 298.29090909 -26.58181818 298.29090909 -24 297 C-23.731875 296.05125 -23.46375 295.1025 -23.1875 294.125 C-21.74127941 290.31915636 -20.45120935 289.93604427 -17 288 C-15.31865712 285.64225405 -15.31865712 285.64225405 -14 283 C-12.29225078 279.89500141 -10.87077034 277.87958146 -8.25 275.4375 C-5.75652754 273.30754513 -5.75652754 273.30754513 -6.0625 271 C-6.371875 270.34 -6.68125 269.68 -7 269 C-7.350625 268.0925 -7.70125 267.185 -8.0625 266.25 C-8.371875 265.5075 -8.68125 264.765 -9 264 C-9.66 264 -10.32 264 -11 264 C-13.04169485 261.09451118 -14 259.59857954 -14 256 C-14.66 256 -15.32 256 -16 256 C-17.1577506 252.52674819 -17.06866652 249.63932552 -17 246 C-17.66 246 -18.32 246 -19 246 C-19.495 244.2984375 -19.495 244.2984375 -20 242.5625 C-20.72425205 240.58963004 -20.72425205 240.58963004 -22 239 C-24.71580044 238.1383605 -27.12021452 238.13934446 -30 238 C-30.33 237.34 -30.66 236.68 -31 236 C-33.69058598 235.19954337 -36.33218727 234.5045341 -39.0625 233.875 C-39.82111328 233.69324219 -40.57972656 233.51148438 -41.36132812 233.32421875 C-43.23913735 232.87543416 -45.11935915 232.43676664 -47 232 C-47 231.34 -47 230.68 -47 230 C-49.31 230 -51.62 230 -54 230 C-54 229.01 -54 228.02 -54 227 C-55.05960937 226.86722656 -56.11921875 226.73445312 -57.2109375 226.59765625 C-58.59898279 226.41946125 -59.98700231 226.2410654 -61.375 226.0625 C-62.42300781 225.93198242 -62.42300781 225.93198242 -63.4921875 225.79882812 C-68.7734375 225.11328125 -68.7734375 225.11328125 -71 224 C-71.33 223.01 -71.66 222.02 -72 221 C-72.66 220.67 -73.32 220.34 -74 220 C-74 219.34 -74 218.68 -74 218 C-74.66 218 -75.32 218 -76 218 C-76.13321231 210.02594764 -76.26371761 202.05185674 -76.39115143 194.07771015 C-76.45045894 190.3713654 -76.51055718 186.66503771 -76.57275391 182.95874023 C-76.90188023 163.30344502 -77.07365959 143.65847059 -77 124 C-75.515 123.505 -75.515 123.505 -74 123 C-74 122.34 -74 121.68 -74 121 C-72.9627478 120.78851318 -72.9627478 120.78851318 -71.90454102 120.57275391 C-68.78863905 119.93231686 -65.67561453 119.27884588 -62.5625 118.625 C-61.47388672 118.40328125 -60.38527344 118.1815625 -59.26367188 117.953125 C-58.22919922 117.73398437 -57.19472656 117.51484375 -56.12890625 117.2890625 C-55.17056885 117.09006348 -54.21223145 116.89106445 -53.22485352 116.68603516 C-52.12355103 116.34644775 -52.12355103 116.34644775 -51 116 C-50.67 115.34 -50.34 114.68 -50 114 C-47.37109028 113.19427152 -44.7963755 112.50219251 -42.125 111.875 C-41.39152344 111.69324219 -40.65804687 111.51148438 -39.90234375 111.32421875 C-36.86999561 110.58960618 -34.13078675 110 -31 110 C-31 109.01 -31 108.02 -31 107 C-30.24074219 106.86722656 -29.48148437 106.73445313 -28.69921875 106.59765625 C-27.20841797 106.33275391 -27.20841797 106.33275391 -25.6875 106.0625 C-24.70136719 105.88847656 -23.71523438 105.71445312 -22.69921875 105.53515625 C-19.91810787 105.04253153 -19.91810787 105.04253153 -17 104 C-16.87882812 103.01257813 -16.75765625 102.02515625 -16.6328125 101.0078125 C-16.46523438 99.72648437 -16.29765625 98.44515625 -16.125 97.125 C-15.96257812 95.84882813 -15.80015625 94.57265625 -15.6328125 93.2578125 C-15 90 -15 90 -13 88 C-12.28591666 86.01643517 -11.61382258 84.01684563 -11 82 C-10.34 82 -9.68 82 -9 82 C-8.67 80.02 -8.34 78.04 -8 76 C-9.485 75.01 -9.485 75.01 -11 74 C-12.60546875 71.25 -12.60546875 71.25 -14.1875 68 C-14.71730469 66.9275 -15.24710937 65.855 -15.79296875 64.75 C-17 62 -17 62 -17 60 C-17.99 59.67 -18.98 59.34 -20 59 C-21.16796875 57.4765625 -21.16796875 57.4765625 -22.1875 55.625 C-22.53167969 55.01914062 -22.87585938 54.41328125 -23.23046875 53.7890625 C-24 52 -24 52 -24 49 C-25.32 48.67 -26.64 48.34 -28 48 C-28 46.35 -28 44.7 -28 43 C-28.66 43 -29.32 43 -30 43 C-33.73794482 39.26205518 -34.80873297 36.25984338 -35 31 C-33.8787067 27.07547343 -31.15595916 25.42201517 -28 23 C-25.46140318 20.58523717 -23.17637377 18.23326853 -21.0625 15.4375 C-18.67614806 12.61726589 -16.09309339 10.99762281 -13 9 C-10.70629406 6.84530654 -8.61777304 4.57955034 -6.5 2.25 C-4 0 -4 0 0 0 Z " fill="#FDFBFC" transform="translate(322,316)"/>
<path d="M0 0 C0 0.66 0 1.32 0 2 C0.85271484 2.16435547 0.85271484 2.16435547 1.72265625 2.33203125 C6.82316758 3.37938166 11.284442 4.79271753 16 7 C16 7.66 16 8.32 16 9 C17.0828125 9.4021875 17.0828125 9.4021875 18.1875 9.8125 C23.51192888 12.06059219 26.97493709 14.87910226 31 19 C32.18129944 19.98663836 33.36912738 20.96549928 34.5625 21.9375 C37.7395727 24.60679002 39.73005432 27.51941663 42 31 C43.66270287 32.33827304 45.32916181 33.67189785 47 35 C48.00568242 36.66324401 49.00664799 38.32936253 50 40 C51.485 40.495 51.485 40.495 53 41 C54.23076923 47.4 54.23076923 47.4 53.0625 50.4375 C52.711875 50.953125 52.36125 51.46875 52 52 C51.34 52 50.68 52 50 52 C49.5978125 52.8353125 49.5978125 52.8353125 49.1875 53.6875 C45.65753425 60.56164384 45.65753425 60.56164384 42 63 C40.69619916 65.27367591 40.69619916 65.27367591 39.5625 67.875 C37.7745975 71.62313295 36.11623721 74.20613215 33 77 C31.16131481 79.62669313 30.98442142 80.75074265 31.1875 84 C32.01026246 87.03789217 33.03149645 88.6035609 35 91 C35 91.66 35 92.32 35 93 C35.66 93 36.32 93 37 93 C37.84124316 95.24732102 38.67314832 97.49738785 39.5 99.75 C39.85771484 100.70132813 39.85771484 100.70132813 40.22265625 101.671875 C41.44801758 105.03286607 42 107.36871587 42 111 C42.66 111 43.32 111 44 111 C44.33 111.66 44.66 112.32 45 113 C46.485 113.495 46.485 113.495 48 114 C48 114.66 48 115.32 48 116 C49.010625 116.0825 50.02125 116.165 51.0625 116.25 C57.84940284 117.07228298 64.43097306 119.16101459 71 121 C71 121.66 71 122.32 71 123 C71.83789062 123.12246094 72.67578125 123.24492187 73.5390625 123.37109375 C77.24129532 124.04384712 80.76414522 125.0064953 84.375 126.0625 C85.62023437 126.42472656 86.86546875 126.78695312 88.1484375 127.16015625 C89.08945312 127.43730469 90.03046875 127.71445312 91 128 C91 128.66 91 129.32 91 130 C92.3921875 130.1546875 92.3921875 130.1546875 93.8125 130.3125 C97.02914465 131.0062861 98.16015919 131.34245216 100 134 C100 134.99 100 135.98 100 137 C100.66 137 101.32 137 102 137 C102.15373196 148.29150467 102.3019136 159.58306711 102.4429636 170.87473774 C102.50863056 176.11762296 102.57622613 181.36046867 102.64819336 186.60327148 C102.71754483 191.66064203 102.78187715 196.71805356 102.84269524 201.77553368 C102.8668143 203.70730098 102.89275735 205.63904637 102.92053413 207.57076454 C102.9590607 210.27150675 102.99116491 212.97225331 103.02172852 215.6730957 C103.04114754 216.87718834 103.04114754 216.87718834 103.06095886 218.10560608 C103.13169178 225.50250885 103.13169178 225.50250885 100.453125 229.046875 C97.11158725 231.70733499 93.86954253 232.36204207 89.75 233.25 C89.00492188 233.42273438 88.25984375 233.59546875 87.4921875 233.7734375 C85.66439713 234.19523528 83.83255208 234.59939559 82 235 C82 235.66 82 236.32 82 237 C74.3622198 240.8188901 65.53576001 243 57 243 C57 243.66 57 244.32 57 245 C55.7625 245.226875 54.525 245.45375 53.25 245.6875 C50.9561783 246.38603163 50.9561783 246.38603163 49 248 C47.0727631 252.20191933 46.05738154 256.51359585 45 261 C44.67 261.66 44.34 262.32 44 263 C43.34 263 42.68 263 42 263 C41.9175 263.804375 41.835 264.60875 41.75 265.4375 C40.79803325 269.95934205 38.98419821 273.84702701 37 278 C36.34 278 35.68 278 35 278 C34.855625 278.639375 34.71125 279.27875 34.5625 279.9375 C34 282 34 282 33 283 C32.7108117 286.56665576 32.97034007 289.0089222 35 292 C35.99 292.33 36.98 292.66 38 293 C39.3540932 294.98600337 40.68457624 296.98817543 42 299 C42.845625 299.845625 43.69125 300.69125 44.5625 301.5625 C47 304 47 304 48.5 306.5625 C49.90012071 309.1683065 49.90012071 309.1683065 52.5625 310.9375 C55.47700354 313.40361838 56.08761089 315.35044358 57 319 C57.66 319 58.32 319 59 319 C59.25 321.25 59.25 321.25 59 324 C57.3125 326 57.3125 326 55 328 C54.195625 328.804375 53.39125 329.60875 52.5625 330.4375 C51.716875 331.283125 50.87125 332.12875 50 333 C48.7934375 334.2375 48.7934375 334.2375 47.5625 335.5 C44.82874288 338.16708012 41.93322554 340.55564538 39 343 C36.4590396 345.41996229 34.15908881 347.79616746 32 350.5625 C30 353 30 353 27.3125 355.125 C24.74752211 356.86120977 24.74752211 356.86120977 24 360 C23.01 360.33 22.02 360.66 21 361 C19.73203245 362.46266144 19.73203245 362.46266144 18.625 364.25 C15.59806976 368.6774502 12.06423141 372.16930243 7.875 375.5 C5.11330591 377.90147312 3.80469254 379.88280379 2 383 C0.66666667 384 -0.66666667 385 -2 386 C-2.433125 386.886875 -2.86625 387.77375 -3.3125 388.6875 C-5 391 -5 391 -8.0625 391.5 C-12.92342131 390.88274015 -17.36863931 389.56553037 -22 388 C-22 387.34 -22 386.68 -22 386 C-22.64066406 385.81824219 -23.28132812 385.63648438 -23.94140625 385.44921875 C-29.14395897 383.93729955 -34.07144327 382.24999329 -39 380 C-39 379.34 -39 378.68 -39 378 C-40.134375 377.855625 -41.26875 377.71125 -42.4375 377.5625 C-46 377 -46 377 -47 376 C-47 373.94398403 -46.99531988 371.88787553 -46.96875 369.83203125 C-47.0271543 364.539142 -47.54376722 359.27111796 -48 354 C-48.66 354 -49.32 354 -50 354 C-50 352.68 -50 351.36 -50 350 C-49.34 350 -48.68 350 -48 350 C-47.01 348.02 -47.01 348.02 -46 346 C-40.34388537 345.43438854 -36.77357872 347.28608722 -32 350 C-32 350.66 -32 351.32 -32 352 C-30.7315625 352.4021875 -30.7315625 352.4021875 -29.4375 352.8125 C-19.50393701 356.24409449 -19.50393701 356.24409449 -17 360 C-15.06432346 359.82230519 -15.06432346 359.82230519 -13 359 C-11.64484544 357.09367718 -11.64484544 357.09367718 -10.625 354.75 C-8.29389155 350.23079588 -6.04472118 348.03354089 -2 345 C0.51941799 342.6005543 2.7871861 340.28375187 4.875 337.5 C7.51205385 334.3975837 10.47401883 332.04090043 14 330 C14.66 330 15.32 330 16 330 C16.0825 329.443125 16.165 328.88625 16.25 328.3125 C17.23895541 325.26322081 18.84757466 323.34810037 21 321 C21.66 321 22.32 321 23 321 C23 320.01 23 319.02 23 318 C22.34 318 21.68 318 21 318 C19.78125 316.28515625 19.78125 316.28515625 18.5 314.0625 C16.81545121 310.94567974 16.81545121 310.94567974 14 309 C13.15549234 307.42301122 12.37222886 305.81284176 11.625 304.1875 C9.80047534 300.40429446 8.08081929 297.87543134 5 295 C2.76650384 291.25091715 1.23316716 288.38190195 2 284 C3.26660533 281.95708818 4.59886384 279.95309888 6 278 C6.33 277.01 6.66 276.02 7 275 C7.66 274.67 8.32 274.34 9 274 C9.94233505 272.00967415 10.80714812 269.98212971 11.625 267.9375 C12.29402344 266.28041016 12.29402344 266.28041016 12.9765625 264.58984375 C13.31429687 263.73519531 13.65203125 262.88054687 14 262 C14.66 262 15.32 262 16 262 C16.27714844 260.89140625 16.55429687 259.7828125 16.83984375 258.640625 C18.91992188 250.3203125 18.91992188 250.3203125 21 242 C21.66 242 22.32 242 23 242 C23.16435547 240.948125 23.16435547 240.948125 23.33203125 239.875 C24.32906005 233.90903906 25.68104379 228.58657632 28 223 C28.66 223 29.32 223 30 223 C30 222.34 30 221.68 30 221 C32.99885296 220.3278433 35.99889775 219.66200785 39 219 C40.19109375 218.73574219 41.3821875 218.47148438 42.609375 218.19921875 C43.85203125 217.92722656 45.0946875 217.65523437 46.375 217.375 C47.55835938 217.11460937 48.74171875 216.85421875 49.9609375 216.5859375 C53 216 53 216 56 216 C56 215.34 56 214.68 56 214 C61.61 212.35 67.22 210.7 73 209 C73 190.52 73 172.04 73 153 C71.02 152.67 69.04 152.34 67 152 C67 151.34 67 150.68 67 150 C66.16210938 149.87753906 65.32421875 149.75507813 64.4609375 149.62890625 C60.75870468 148.95615288 57.23585478 147.9935047 53.625 146.9375 C52.37976563 146.57527344 51.13453125 146.21304688 49.8515625 145.83984375 C48.91054688 145.56269531 47.96953125 145.28554688 47 145 C47 144.34 47 143.68 47 143 C46.14277344 142.93941406 45.28554688 142.87882813 44.40234375 142.81640625 C40.93322595 142.56218679 37.46656334 142.28686014 34 142 C33.22398437 141.93941406 32.44796875 141.87882813 31.6484375 141.81640625 C29.8125 141.625 29.8125 141.625 27 141 C24.72525723 137.58788584 24.43370356 135.3431471 23.875 131.3125 C23.70742188 130.13300781 23.53984375 128.95351563 23.3671875 127.73828125 C23.24601563 126.83464844 23.12484375 125.93101562 23 125 C22.34 125 21.68 125 21 125 C20.16235732 123.04350603 19.33000941 121.08474444 18.5 119.125 C17.80390625 117.48917969 17.80390625 117.48917969 17.09375 115.8203125 C16 113 16 113 16 111 C15.34 111 14.68 111 14 111 C13.16209211 109.21046815 12.32980604 107.41830305 11.5 105.625 C11.0359375 104.62726563 10.571875 103.62953125 10.09375 102.6015625 C9 100 9 100 9 98 C8.01 97.67 7.02 97.34 6 97 C4.98234073 95.00892752 3.98422146 93.00781177 3 91 C1.68671343 89.64691687 0.35500919 88.31129922 -1 87 C-2.97049578 83.94573155 -3.45224705 81.61797644 -3 78 C-1.625 75.6875 -1.625 75.6875 0 74 C0.66 74 1.32 74 2 74 C2.0825 73.484375 2.165 72.96875 2.25 72.4375 C3.95875898 66.88403332 6.90002407 62.96771864 11 59 C11.474375 58.195625 11.94875 57.39125 12.4375 56.5625 C14.25923393 53.57485635 16.46626243 51.39677879 19 49 C18.5359375 48.1028125 18.5359375 48.1028125 18.0625 47.1875 C17 45 17 45 16 42 C14.6846659 41.29848848 13.34882408 40.63474075 12 40 C10.25 38.5625 10.25 38.5625 9 37 C9 36.01 9 35.02 9 34 C8.443125 33.773125 7.88625 33.54625 7.3125 33.3125 C3.23164075 30.99633664 0.38409832 27.50950634 -2.5 23.875 C-4.92009962 21.09188544 -6.85207522 19.81005675 -10 18 C-11.68711423 16.3540349 -13.3545622 14.68762851 -15 13 C-16.82437884 11.06788056 -16.82437884 11.06788056 -19 10 C-22.66801521 10.1630229 -25.24395949 11.10515495 -28.625 12.5625 C-32 14 -32 14 -36 14 C-36 14.66 -36 15.32 -36 16 C-38.26882087 16.83919398 -40.53977027 17.67151724 -42.8125 18.5 C-43.45509766 18.73847656 -44.09769531 18.97695313 -44.75976562 19.22265625 C-47.64933739 20.27068746 -49.90076061 21 -53 21 C-53.33 21.66 -53.66 22.32 -54 23 C-53.86132739 18.89555833 -53.71283897 14.7915296 -53.5625 10.6875 C-53.52318359 9.52025391 -53.48386719 8.35300781 -53.44335938 7.15039062 C-53.40146484 6.03212891 -53.35957031 4.91386719 -53.31640625 3.76171875 C-53.27974854 2.73006592 -53.24309082 1.69841309 -53.20532227 0.63549805 C-53 -2 -53 -2 -52 -5 C-38.7608343 -11.61958285 -13.40505354 -3.71660973 0 0 Z " fill="#FEFDFE" transform="translate(647,309)"/>
<path d="M0 0 C0 9.24 0 18.48 0 28 C-4 30 -4 30 -7 30 C-7 30.66 -7 31.32 -7 32 C-7.59167969 32.30292969 -8.18335938 32.60585938 -8.79296875 32.91796875 C-14.68231965 36.04038154 -18.8634134 39.26249842 -23 44.5625 C-25 47 -25 47 -27.625 49.0625 C-30.03367338 51.02747039 -30.68524695 52.2828437 -32 55 C-32.639375 55.474375 -33.27875 55.94875 -33.9375 56.4375 C-36.16543828 57.92362395 -36.16543828 57.92362395 -37.5 60.5 C-39 63 -39 63 -41 64.375 C-43.94816419 66.77038341 -44.66799258 69.47018033 -46 73 C-46.66 73 -47.32 73 -48 73 C-48.11214844 73.69480469 -48.22429687 74.38960938 -48.33984375 75.10546875 C-49.08446115 78.37032964 -50.24400088 81.23600205 -51.5625 84.3125 C-52.01753906 85.38113281 -52.47257812 86.44976562 -52.94140625 87.55078125 C-53.46541016 88.76314453 -53.46541016 88.76314453 -54 90 C-54.66 90 -55.32 90 -56 90 C-57.71604609 97.65620565 -59.36271632 105.32659713 -61 113 C-61.66 113 -62.32 113 -63 113 C-63 129.17 -63 145.34 -63 162 C-62.34 162 -61.68 162 -61 162 C-60.72285156 163.21558594 -60.44570313 164.43117188 -60.16015625 165.68359375 C-59.79446102 167.26827307 -59.42856525 168.85290612 -59.0625 170.4375 C-58.88009766 171.23994141 -58.69769531 172.04238281 -58.50976562 172.86914062 C-57.90338992 176.74952729 -57.90338992 176.74952729 -56 180 C-55.95936168 181.66617115 -55.957279 183.33388095 -56 185 C-55.01 185 -54.02 185 -53 185 C-52.35284867 187.0829243 -51.70732834 189.16635539 -51.0625 191.25 C-50.52302734 192.99023438 -50.52302734 192.99023438 -49.97265625 194.765625 C-49.24933363 197.17089058 -48.57457589 199.55654044 -48 202 C-47.34 202 -46.68 202 -46 202 C-45.16151196 203.45537568 -44.32936066 204.91440373 -43.5 206.375 C-43.0359375 207.18710937 -42.571875 207.99921875 -42.09375 208.8359375 C-41 211 -41 211 -41 213 C-40.01 213.33 -39.02 213.66 -38 214 C-37.38125 214.94875 -36.7625 215.8975 -36.125 216.875 C-33.89733324 220.15098054 -32.37800651 221.10502074 -29 223 C-26.19030868 225.53557509 -24.08931847 227.85881919 -22.0625 231.0625 C-19.73304461 234.3802092 -17.41278633 235.86700854 -14 238 C-12.64691687 239.31328657 -11.31129922 240.64499081 -10 242 C-8.68441297 243.02323436 -7.35622245 244.03126968 -6 245 C-6.15847412 245.72018311 -6.31694824 246.44036621 -6.48022461 247.18237305 C-6.97285006 249.85282412 -7.20002649 252.37204546 -7.31640625 255.08203125 C-7.35830078 256.01337891 -7.40019531 256.94472656 -7.44335938 257.90429688 C-7.48267578 258.86400391 -7.52199219 259.82371094 -7.5625 260.8125 C-7.60568359 261.79154297 -7.64886719 262.77058594 -7.69335938 263.77929688 C-7.7990226 266.18607027 -7.90112327 268.59293983 -8 271 C-14.625 270.25 -14.625 270.25 -18 268 C-18 267.34 -18 266.68 -18 266 C-18.515625 265.9175 -19.03125 265.835 -19.5625 265.75 C-23.04455732 264.67859775 -25.87200885 262.86476395 -29 261 C-29 260.34 -29 259.68 -29 259 C-29.72960937 258.74863281 -30.45921875 258.49726562 -31.2109375 258.23828125 C-34.21511703 256.90449286 -36.18638561 255.3789009 -38.625 253.1875 C-39.38039063 252.52105469 -40.13578125 251.85460937 -40.9140625 251.16796875 C-43.06658822 248.93079314 -44.44485525 246.67290503 -46 244 C-47.63260714 242.62517293 -49.30225062 241.29352333 -51 240 C-54.77348574 236.60386283 -57.2990066 233.13966292 -59.7890625 228.76953125 C-61.04202446 226.70231064 -61.04202446 226.70231064 -64 225 C-65.16796875 222.90625 -65.16796875 222.90625 -66.1875 220.5 C-66.70376953 219.30890625 -66.70376953 219.30890625 -67.23046875 218.09375 C-68 216 -68 216 -68 214 C-68.99 213.67 -69.98 213.34 -71 213 C-72.16796875 211.07421875 -72.16796875 211.07421875 -73.1875 208.6875 C-73.53167969 207.90761719 -73.87585938 207.12773438 -74.23046875 206.32421875 C-75 204 -75 204 -75 200 C-75.66 200 -76.32 200 -77 200 C-77.8394882 197.89828133 -78.67139656 195.79353375 -79.5 193.6875 C-80.19609375 191.92986328 -80.19609375 191.92986328 -80.90625 190.13671875 C-82 187 -82 187 -82 184 C-82.99 184 -83.98 184 -85 184 C-85.18175781 182.82244141 -85.18175781 182.82244141 -85.3671875 181.62109375 C-86.09298277 177.07091572 -86.79927158 172.66909474 -88.125 168.25 C-89.18402927 164.3164627 -89.14246815 161.06034227 -89 157 C-89.66 157 -90.32 157 -91 157 C-91 146.44 -91 135.88 -91 125 C-90.34 125 -89.68 125 -89 125 C-89.02320313 124.42894531 -89.04640625 123.85789062 -89.0703125 123.26953125 C-89.31717938 112.17815517 -87.62457345 100.51126301 -84 90 C-83.01 89.505 -83.01 89.505 -82 89 C-81.25333821 87.17450267 -81.25333821 87.17450267 -80.7109375 84.96484375 C-80.49179687 84.15595703 -80.27265625 83.34707031 -80.046875 82.51367188 C-79.82515625 81.66353516 -79.6034375 80.81339844 -79.375 79.9375 C-79.14554687 79.08349609 -78.91609375 78.22949219 -78.6796875 77.34960938 C-78.11260838 75.23487683 -77.55307378 73.11843061 -77 71 C-76.01 71 -75.02 71 -74 71 C-73.71125 70.071875 -73.4225 69.14375 -73.125 68.1875 C-72 65 -72 65 -70 62 C-69.34 62 -68.68 62 -68 62 C-67.9175 61.319375 -67.835 60.63875 -67.75 59.9375 C-66.77667472 56.1253093 -65.04192545 53.35929671 -63 50 C-62.34 50 -61.68 50 -61 50 C-60.731875 49.2575 -60.46375 48.515 -60.1875 47.75 C-59.04723249 45.10938051 -57.90619694 43.14447156 -56 41 C-55.34 41 -54.68 41 -54 41 C-53.7525 40.29875 -53.505 39.5975 -53.25 38.875 C-50.60816113 32.79877059 -47.14379231 29.09403877 -42 25 C-39.47275043 22.53439066 -37.02505584 20.02703393 -34.625 17.4375 C-31.48950044 14.52596469 -27.47165325 11 -23 11 C-23 10.34 -23 9.68 -23 9 C-21.39967863 8.15930585 -19.79458829 7.32768495 -18.1875 6.5 C-17.29417969 6.0359375 -16.40085937 5.571875 -15.48046875 5.09375 C-13 4 -13 4 -10 4 C-10 3.34 -10 2.68 -10 2 C-6.38026598 0.68373308 -3.90432869 0 0 0 Z " fill="#FDFCFD" transform="translate(452,357)"/>
<path d="M0 0 C5.35291214 2.7289356 8.32446983 5.27431835 12 10 C12.66 10.33 13.32 10.66 14 11 C15.2890625 12.99609375 15.2890625 12.99609375 16.625 15.4375 C17.07101562 16.24058594 17.51703125 17.04367187 17.9765625 17.87109375 C19 20 19 20 19 22 C19.99 22.33 20.98 22.66 22 23 C23.99396257 25.66083969 26 28.61242325 26 32 C27.485 32.495 27.485 32.495 29 33 C30.16796875 34.99609375 30.16796875 34.99609375 31.1875 37.4375 C31.53167969 38.24058594 31.87585938 39.04367187 32.23046875 39.87109375 C33 42 33 42 33 44 C33.66 44 34.32 44 35 44 C35.83739781 46.1234016 36.66980283 48.2487728 37.5 50.375 C37.9640625 51.55835938 38.428125 52.74171875 38.90625 53.9609375 C40 57 40 57 40 59 C40.66 59 41.32 59 42 59 C42.84226 61.55986879 43.67398551 64.12239015 44.5 66.6875 C44.73847656 67.40873047 44.97695313 68.12996094 45.22265625 68.87304688 C46.44398994 72.69407657 47.32075577 75.93442056 47 80 C47.66 80 48.32 80 49 80 C50.63137472 92.11878364 51.21863791 104.1580411 51.25 116.375 C51.25499512 117.04515137 51.25999023 117.71530273 51.26513672 118.40576172 C51.32267237 127.81629344 50.5810873 136.73137093 49 146 C48.34 146 47.68 146 47 146 C46.96132813 146.83917969 46.96132813 146.83917969 46.921875 147.6953125 C46.37273111 155.45821023 44.29603996 162.58859658 42 170 C41.34 170 40.68 170 40 170 C39.87109375 170.721875 39.7421875 171.44375 39.609375 172.1875 C38.04035143 179.42914725 35.57611647 185.01084315 30 190 C28.70480005 192.16620544 28.70480005 192.16620544 28 194 C27.34 194 26.68 194 26 194 C25.773125 194.9075 25.54625 195.815 25.3125 196.75 C24 200 24 200 21.6875 201.8125 C18.39432145 204.49299417 17.10280612 207.28091854 15.30859375 211.07421875 C13.69117165 213.45448471 12.73220904 213.45926116 10 214 C9.61309706 208.73628494 9.2560846 203.4716718 8.92578125 198.20410156 C8.80948958 196.41514811 8.68526297 194.62669111 8.55273438 192.83886719 C8.36284385 190.25808238 8.20224409 187.67681583 8.046875 185.09375 C7.9824823 184.30383667 7.9180896 183.51392334 7.85174561 182.70007324 C7.53417509 176.71617592 8.982858 173.16930131 12 168 C12.66 168 13.32 168 14 168 C14.19335938 167.21496094 14.38671875 166.42992187 14.5859375 165.62109375 C15.96653221 160.0508725 17.37388447 154.50377563 19 149 C19.66 149 20.32 149 21 149 C21.09087891 147.98679687 21.09087891 147.98679687 21.18359375 146.953125 C21.26738281 146.06109375 21.35117187 145.1690625 21.4375 144.25 C21.51871094 143.36828125 21.59992187 142.4865625 21.68359375 141.578125 C22 139 22 139 22.51069641 137.09432983 C23.00939417 134.95979081 23.13326059 133.10115375 23.14526367 130.91259766 C23.15164352 130.11721588 23.15802338 129.32183411 23.16459656 128.50234985 C23.16570938 127.64821503 23.1668222 126.7940802 23.16796875 125.9140625 C23.17129715 125.02069183 23.17462555 124.12732117 23.17805481 123.20687866 C23.18311617 121.31224073 23.18546338 119.4175939 23.18530273 117.52294922 C23.18746581 114.67009023 23.2055644 111.81763315 23.22460938 108.96484375 C23.25499906 98.77862304 22.87964272 89.0425104 21 79 C20.34 79 19.68 79 19 79 C18.16112944 76.56427941 17.32873471 74.12666783 16.5 71.6875 C16.26152344 70.99720703 16.02304687 70.30691406 15.77734375 69.59570312 C14.76791737 66.61068511 14 64.17341086 14 61 C13.34 61 12.68 61 12 61 C10.99515796 59.04414675 9.99626195 57.08523763 9 55.125 C8.1646875 53.48917969 8.1646875 53.48917969 7.3125 51.8203125 C6 49 6 49 6 47 C5.34 47 4.68 47 4 47 C-2.83996397 38.76608043 -1.59871596 29.05574559 -1.375 19 C-1.35847004 17.26694673 -1.3441279 15.53387114 -1.33203125 13.80078125 C-1.19650303 1.19650303 -1.19650303 1.19650303 0 0 Z " fill="#FDFCFD" transform="translate(585,376)"/>
<path d="M0 0 C2.31 0 4.62 0 7 0 C7 0.66 7 1.32 7 2 C7.721875 2.103125 8.44375 2.20625 9.1875 2.3125 C12.35761946 3.08741809 14.44663103 3.95730482 17 6 C17.3125 8.6875 17.3125 8.6875 17 11 C17.66 11 18.32 11 19 11 C19 27.17 19 43.34 19 60 C20.485 60.495 20.485 60.495 22 61 C22.33 61.66 22.66 62.32 23 63 C56.99 63.33 90.98 63.66 126 64 C126 64.66 126 65.32 126 66 C128.31 66.33 130.62 66.66 133 67 C133.0270203 69.75006608 133.04684883 72.49986546 133.0625 75.25 C133.07087891 76.02730469 133.07925781 76.80460938 133.08789062 77.60546875 C133.09111328 78.35957031 133.09433594 79.11367188 133.09765625 79.890625 C133.10289307 80.58188477 133.10812988 81.27314453 133.11352539 81.98535156 C132.99240406 84.13479935 132.6985234 85.9620201 132 88 C129.54903379 89.22548311 127.96468725 89.12580834 125.22401428 89.12698364 C124.21590195 89.12980347 123.20778961 89.13262329 122.16912842 89.13552856 C121.05894348 89.13350433 119.94875854 89.1314801 118.80493164 89.12939453 C117.05607918 89.13202301 117.05607918 89.13202301 115.27189636 89.13470459 C111.40130137 89.1391213 107.53075174 89.13618554 103.66015625 89.1328125 C100.97977135 89.13348564 98.29938785 89.1344541 95.6190033 89.13571167 C89.99412542 89.13753243 84.36926065 89.13512976 78.74438477 89.13037109 C72.23922964 89.12493129 65.73410587 89.12668945 59.22895151 89.1321975 C53.64759142 89.13673443 48.06624077 89.13737625 42.48487943 89.13475883 C39.14977029 89.13319892 35.81467914 89.1333864 32.47957039 89.13629532 C28.76117947 89.13882627 25.04284927 89.13497478 21.32446289 89.12939453 C20.21630219 89.13141876 19.10814148 89.13344299 17.96640015 89.13552856 C16.95546799 89.13270874 15.94453583 89.12988892 14.90296936 89.12698364 C13.58363199 89.1264181 13.58363199 89.1264181 12.23764133 89.12584114 C10 89 10 89 7 88 C7 87.34 7 86.68 7 86 C5.39125 85.62875 5.39125 85.62875 3.75 85.25 C-0.00466284 83.99844572 -1.6002828 83.07163802 -4 80 C-4 79.34 -4 78.68 -4 78 C-4.66 78 -5.32 78 -6 78 C-7.88660736 73.99137393 -8.26616351 70.75861404 -8.30639648 66.34545898 C-8.31472 65.69766479 -8.32304352 65.04987061 -8.33161926 64.38244629 C-8.35560138 62.25360005 -8.36447429 60.12506047 -8.37109375 57.99609375 C-8.38006533 56.51066499 -8.38918727 55.02523713 -8.39845276 53.53981018 C-8.41491052 50.43219815 -8.42263764 47.32469349 -8.42553711 44.21704102 C-8.43093415 40.23646617 -8.46868052 36.25689976 -8.51428127 32.27661037 C-8.54402204 29.21137293 -8.55125991 26.14638001 -8.55226326 23.08101082 C-8.55646745 21.61336687 -8.56890999 20.14572232 -8.58978081 18.67822075 C-8.61665245 16.62643782 -8.61188755 14.57701572 -8.59936523 12.52514648 C-8.60443588 11.35886215 -8.60950653 10.19257782 -8.61473083 8.99095154 C-8 6 -8 6 -5.65003967 3.59217834 C-3 2 -3 2 0 2 C0 1.34 0 0.68 0 0 Z " fill="#FBF8FA" transform="translate(238,652)"/>
<path d="M0 0 C1.49251534 0.00137466 1.49251534 0.00137466 3.0151825 0.0027771 C5.10009588 0.00877561 7.18500218 0.02440718 9.26977539 0.04931641 C12.45816769 0.08604057 15.64540162 0.09033359 18.83398438 0.08984375 C20.86849961 0.0996688 22.90300701 0.11132312 24.9375 0.125 C25.88651688 0.12722565 26.83553375 0.12945129 27.81330872 0.13174438 C37.95317656 0.27739531 37.95317656 0.27739531 41.13671875 3.4609375 C41.22357478 5.02266495 41.24374094 6.58823094 41.234375 8.15234375 C41.22954102 9.56870117 41.22954102 9.56870117 41.22460938 11.01367188 C41.21204102 12.50350586 41.21204102 12.50350586 41.19921875 14.0234375 C41.19470703 15.02052734 41.19019531 16.01761719 41.18554688 17.04492188 C41.17371882 19.51698599 41.15723724 21.98893268 41.13671875 24.4609375 C35.25220971 25.20433684 29.41455016 25.54785854 23.484375 25.671875 C22.81240082 25.6861554 22.14042664 25.70043579 21.4480896 25.71514893 C18.6515704 25.77297286 15.85526606 25.82785755 13.05834961 25.86230469 C10.99153607 25.8898274 8.92578158 25.93560531 6.859375 25.984375 C5.64000244 26.00419434 4.42062988 26.02401367 3.16430664 26.04443359 C0.22163689 26.21807409 0.22163689 26.21807409 -1.5322113 27.61026001 C-3.44535194 30.27023015 -3.21675232 32.23150969 -3.18798828 35.48828125 C-3.18457428 36.73756409 -3.18116028 37.98684692 -3.17764282 39.27398682 C-3.15896328 40.64880603 -3.14010857 42.02362288 -3.12109375 43.3984375 C-3.11259602 44.82516708 -3.10557431 46.25190612 -3.09994507 47.6786499 C-3.08557614 50.70560533 -3.06255258 53.73231547 -3.0324707 56.75915527 C-2.96345376 63.77093957 -2.93812244 70.78292353 -2.9114151 77.79497528 C-2.90536424 79.33353649 -2.89876677 80.87209564 -2.89162445 82.41065216 C-2.83493348 94.68463466 -2.94294169 106.9431987 -3.36328125 119.2109375 C-3.38747131 119.92781738 -3.41166138 120.64469727 -3.43658447 121.38330078 C-3.56382844 125.07651635 -3.70444966 128.76894794 -3.86328125 132.4609375 C-4.65992188 132.75871094 -5.4565625 133.05648437 -6.27734375 133.36328125 C-8.87328541 134.24498699 -8.87328541 134.24498699 -10.23828125 136.0234375 C-12.86994169 138.35144481 -15.43894255 138.28381653 -18.86328125 138.4609375 C-21.80078125 137.5234375 -21.80078125 137.5234375 -23.86328125 136.4609375 C-23.86328125 135.8009375 -23.86328125 135.1409375 -23.86328125 134.4609375 C-25.06984375 134.2753125 -25.06984375 134.2753125 -26.30078125 134.0859375 C-27.14640625 133.8796875 -27.99203125 133.6734375 -28.86328125 133.4609375 C-30.06361266 131.06027467 -29.99164345 129.56922685 -29.99699402 126.88822937 C-30.001259 125.92507813 -30.00552399 124.96192688 -30.00991821 123.96958923 C-30.00946503 122.90930008 -30.00901184 121.84901093 -30.00854492 120.7565918 C-30.01190353 119.64267059 -30.01526215 118.52874939 -30.01872253 117.381073 C-30.02825567 113.68242287 -30.03017692 109.98381791 -30.03125 106.28515625 C-30.03446126 103.72166424 -30.03782523 101.15817241 -30.04133606 98.59468079 C-30.04733347 93.21358742 -30.04921808 87.83251207 -30.04858398 82.45141602 C-30.04798366 76.23483801 -30.0585255 70.01834691 -30.07432765 63.80179089 C-30.08898904 57.82064417 -30.09257175 51.83954455 -30.09197426 45.85837746 C-30.09315591 43.31424416 -30.09758802 40.77011025 -30.10530663 38.22598839 C-30.11508791 34.66840763 -30.11223553 31.11105106 -30.10620117 27.5534668 C-30.11182068 26.49925034 -30.11744019 25.44503387 -30.12322998 24.35887146 C-30.11903549 23.38726074 -30.114841 22.41565002 -30.11051941 21.41459656 C-30.11106418 20.57375361 -30.11160894 19.73291067 -30.11217022 18.86658764 C-29.58501951 13.77138317 -27.58363107 10.8430737 -23.86328125 7.4609375 C-23.41873093 6.97178864 -22.9741806 6.48263977 -22.51615906 5.97866821 C-16.3865441 0.35023952 -7.88705303 -0.12072171 0 0 Z " fill="#FDFBFC" transform="translate(259.86328125,245.5390625)"/>
<path d="M0 0 C1.28488815 -0.00361794 1.28488815 -0.00361794 2.59573364 -0.00730896 C4.39931894 -0.006334 6.20293547 0.00697536 8.00634766 0.03198242 C10.74356601 0.06622801 13.47753816 0.05263932 16.21484375 0.03320312 C17.97657605 0.04010485 19.7383001 0.04978018 21.5 0.0625 C22.30654022 0.05754013 23.11308044 0.05258026 23.94406128 0.04747009 C29.88645278 0.16849757 34.74243478 1.59871403 39.8828125 4.62890625 C42.1953125 7.12890625 42.1953125 7.12890625 43.8828125 9.62890625 C44.5840625 10.30953125 45.2853125 10.99015625 46.0078125 11.69140625 C52.94580202 18.86066209 51.01793099 30.90503115 50.96875 40.14453125 C50.96444852 41.59678066 50.96041691 43.04903089 50.95663452 44.50128174 C50.94161099 49.21055779 50.91361578 53.91971006 50.8828125 58.62890625 C50.87774185 59.42712799 50.8726712 60.22534973 50.8674469 61.04776001 C50.79756614 71.80371486 50.69325668 82.55903965 50.56542969 93.31445312 C50.52517476 96.74085305 50.4907645 100.16724366 50.4609375 103.59375 C50.42411326 107.82051215 50.37787916 112.04707106 50.32474899 116.27365875 C50.30633648 117.86041062 50.29118103 119.44720401 50.27946854 121.03401947 C50.26260813 123.22569622 50.23361255 125.41689696 50.20166016 127.60839844 C50.18833649 128.84789246 50.17501282 130.08738647 50.1612854 131.36444092 C49.88743875 134.57467388 49.39995284 136.79659369 47.8828125 139.62890625 C43.58079487 141.72989161 39.61486362 142.21003533 34.8828125 141.62890625 C31.75734577 140.55334078 29.93335555 139.22279149 27.8828125 136.62890625 C25.58281103 128.11982514 25.5143843 119.01726186 25.3203125 110.25390625 C25.28491484 108.91153102 25.24917243 107.56916484 25.21313477 106.22680664 C24.54683945 80.03392484 24.25996726 53.8272514 23.8828125 27.62890625 C19.35081992 26.918714 14.94818729 26.48422883 10.36328125 26.3828125 C8.5834082 26.33350586 8.5834082 26.33350586 6.76757812 26.28320312 C4.28330821 26.22152289 1.798924 26.16429916 -0.68554688 26.11132812 C-1.86568359 26.07716797 -3.04582031 26.04300781 -4.26171875 26.0078125 C-5.33784424 25.98275635 -6.41396973 25.9577002 -7.52270508 25.93188477 C-10.1171875 25.62890625 -10.1171875 25.62890625 -12.1171875 23.62890625 C-12.1171875 22.63890625 -12.1171875 21.64890625 -12.1171875 20.62890625 C-12.7771875 20.62890625 -13.4371875 20.62890625 -14.1171875 20.62890625 C-15.85753417 17.36575625 -16.42395376 14.27447228 -16.6796875 10.62890625 C-16.74285156 9.80390625 -16.80601562 8.97890625 -16.87109375 8.12890625 C-15.88104253 4.84583484 -13.98238077 3.58710495 -11.21269226 1.69631958 C-7.55634204 -0.16616102 -4.03421783 -0.06598477 0 0 Z " fill="#FDFCFD" transform="translate(746.1171875,245.37109375)"/>
<path d="M0 0 C2.57318003 1.82900169 2.95737218 3.37113797 3.91796875 6.36328125 C4.18539429 9.26448059 4.18539429 9.26448059 4.20849609 12.49536133 C4.2212558 13.71044876 4.2340155 14.92553619 4.24716187 16.17744446 C4.24938751 17.48271591 4.25161316 18.78798737 4.25390625 20.1328125 C4.2603404 21.496558 4.26706921 22.86030214 4.27407837 24.2240448 C4.28603237 27.07949012 4.28976123 29.93481464 4.28857422 32.7902832 C4.28837132 36.43181235 4.31565046 40.07255853 4.35011864 43.71390247 C4.372466 46.53052762 4.37640936 49.34696681 4.37535477 52.16367149 C4.37883275 54.15326605 4.40044833 56.14280256 4.42245483 58.13227844 C4.38614822 65.35756223 3.87307078 70.24648192 -0.08203125 76.36328125 C-3.4645278 79.7109067 -7.28708649 81.64660309 -12.08203125 81.67578125 C-13.07203125 81.57265625 -14.06203125 81.46953125 -15.08203125 81.36328125 C-15.08203125 82.02328125 -15.08203125 82.68328125 -15.08203125 83.36328125 C-27.79081632 84.11031766 -40.48786733 84.59625081 -53.21557617 84.8659668 C-56.01426105 84.92566883 -58.81278066 84.99084137 -61.61132812 85.05664062 C-67.10126398 85.18177096 -72.5913477 85.27797178 -78.08203125 85.36328125 C-79.02685364 85.37993835 -79.97167603 85.39659546 -80.94512939 85.41375732 C-83.72122819 85.45901691 -86.49709923 85.48957338 -89.2734375 85.515625 C-90.53884621 85.53829185 -90.53884621 85.53829185 -91.82981873 85.56141663 C-97.73767065 85.59285498 -97.73767065 85.59285498 -101.08203125 83.36328125 C-101.08203125 82.70328125 -101.08203125 82.04328125 -101.08203125 81.36328125 C-102.07203125 81.03328125 -103.06203125 80.70328125 -104.08203125 80.36328125 C-104.10906506 78.42585784 -104.1284425 76.48832646 -104.14453125 74.55078125 C-104.16193359 72.93236328 -104.16193359 72.93236328 -104.1796875 71.28125 C-104.05346557 67.50973864 -103.60235742 65.88548585 -100.91796875 63.19140625 C-95.59941123 59.85339944 -88.72443121 60.95635808 -82.70703125 61.11328125 C-81.39863281 61.13132812 -80.09023438 61.149375 -78.7421875 61.16796875 C-75.52138436 61.21498777 -72.30208651 61.28069944 -69.08203125 61.36328125 C-69.08203125 60.70328125 -69.08203125 60.04328125 -69.08203125 59.36328125 C-61.16127349 58.74550627 -53.28867438 58.31499396 -45.33984375 58.40234375 C-44.18210449 58.41458984 -43.02436523 58.42683594 -41.83154297 58.43945312 C-39.5230496 58.47166316 -37.21469669 58.51695127 -34.90673828 58.57617188 C-33.29968018 58.5984082 -33.29968018 58.5984082 -31.66015625 58.62109375 C-30.22784668 58.65420654 -30.22784668 58.65420654 -28.76660156 58.68798828 C-25.23113479 58.26036271 -23.65615137 57.89666613 -21.08203125 55.36328125 C-20.39878455 51.85787929 -20.57512941 48.40805093 -20.69921875 44.8515625 C-20.71340851 43.80937057 -20.72759827 42.76717865 -20.74221802 41.69340515 C-20.79013041 38.35328742 -20.87100672 35.01511901 -20.95703125 31.67578125 C-21.03267493 28.35444537 -21.10079879 25.03354632 -21.15042114 21.7117157 C-21.18221598 19.64452435 -21.22921282 17.57749341 -21.29367065 15.51106262 C-21.39921953 9.37932236 -20.71049795 4.93385217 -18.08203125 -0.63671875 C-12.81951124 -5.14745018 -5.64872547 -2.36254783 0 0 Z " fill="#FDFCFD" transform="translate(792.08203125,656.63671875)"/>
<path d="M0 0 C0.33 0.99 0.66 1.98 1 3 C1.61875 3.0825 2.2375 3.165 2.875 3.25 C5 4 5 4 6.875 7 C8.57670754 11.52542005 7.95149417 15.6352742 6 20 C3.53299655 22.03527785 2.20000682 23 -1 23 C-1 23.66 -1 24.32 -1 25 C-12.85168028 25.78085741 -12.85168028 25.78085741 -17.125 22.875 C-17.74375 21.92625 -18.3625 20.9775 -19 20 C-19.61875 19.071875 -20.2375 18.14375 -20.875 17.1875 C-22.75769609 11.85319441 -21.69923765 7.79803966 -19.6875 2.625 C-15.17251483 -4.39831026 -6.97889376 -2.65197963 0 0 Z " fill="#73306D" transform="translate(522,243)"/>
<path d="M0 0 C2 1.375 2 1.375 4 3 C4 3.66 4 4.32 4 5 C4.556875 5.2475 5.11375 5.495 5.6875 5.75 C10.90092248 8.5680662 14.29753896 12.44312488 18 17 C19.31543863 18.35099103 20.64175118 19.69205669 22 21 C21.67 21.66 21.34 22.32 21 23 C20.29875 22.278125 19.5975 21.55625 18.875 20.8125 C16.96189068 18.88855154 15.05503352 17.22859879 12.9375 15.5 C10.18754889 13.15961608 8.2017103 10.84091652 6 8 C5.113125 7.13375 4.22625 6.2675 3.3125 5.375 C1 3 1 3 0 0 Z " fill="#B884A9" transform="translate(328,634)"/>
<path d="M0 0 C1.02574883 0.00424484 1.02574883 0.00424484 2.07221985 0.00857544 C4.2527529 0.01975566 6.4328727 0.04485559 8.61328125 0.0703125 C10.09309302 0.08034512 11.57291124 0.08947048 13.05273438 0.09765625 C16.67721725 0.11968769 20.30145891 0.15420248 23.92578125 0.1953125 C23.92578125 0.5253125 23.92578125 0.8553125 23.92578125 1.1953125 C23.04317627 1.19942139 22.16057129 1.20353027 21.2512207 1.20776367 C17.96102085 1.23481234 14.67266727 1.28396201 11.38305664 1.34790039 C9.96227423 1.37102753 8.54132167 1.38546376 7.12036133 1.39086914 C5.07135659 1.40019911 3.02500775 1.44126416 0.9765625 1.48828125 C-0.86941528 1.51184692 -0.86941528 1.51184692 -2.75268555 1.53588867 C-6.8946594 2.35819454 -8.40437249 4.01143775 -11.07421875 7.1953125 C-10.76171875 4.8203125 -10.76171875 4.8203125 -10.07421875 2.1953125 C-6.34881213 -0.28829191 -4.44358902 -0.0362742 0 0 Z " fill="#B06D9A" transform="translate(267.07421875,270.8046875)"/>
<path d="M0 0 C1.79068573 2.6860286 2.66055791 4.6626589 3.625 7.6875 C3.88539063 8.49574219 4.14578125 9.30398438 4.4140625 10.13671875 C4.60742188 10.75160156 4.80078125 11.36648438 5 12 C5.66 12 6.32 12 7 12 C7.33 13.65 7.66 15.3 8 17 C5 16 5 16 3.61328125 13.41796875 C3.18402344 12.35191406 2.75476563 11.28585937 2.3125 10.1875 C1.87550781 9.12917969 1.43851562 8.07085938 0.98828125 6.98046875 C0 4 0 4 0 0 Z " fill="#C092B3" transform="translate(334,566)"/>
<path d="M0 0 C7.48291572 5.0022779 7.48291572 5.0022779 10 9 C9.67 9.66 9.34 10.32 9 11 C5.43279004 8.32459253 2.58873576 5.64340588 0 2 C0 1.34 0 0.68 0 0 Z " fill="#C191B3" transform="translate(307,654)"/>
<path d="M0 0 C0 3 0 3 -2.5 5.6875 C-3.325 6.450625 -4.15 7.21375 -5 8 C-5.66 7.67 -6.32 7.34 -7 7 C-4.66666667 4.66666667 -2.33333333 2.33333333 0 0 Z " fill="#956794" transform="translate(572,892)"/>
<path d="M0 0 C0.66 0 1.32 0 2 0 C2 0.66 2 1.32 2 2 C2.66 2 3.32 2 4 2 C4 1.34 4 0.68 4 0 C4.99 0 5.98 0 7 0 C6.67 0.99 6.34 1.98 6 3 C3.9375 3.6875 3.9375 3.6875 2 4 C1.34 2.68 0.68 1.36 0 0 Z " fill="#98729B" transform="translate(628,666)"/>
<path d="M0 0 C0.99 0.33 1.98 0.66 3 1 C3 3.31 3 5.62 3 8 C2.34 8 1.68 8 1 8 C0.67 5.36 0.34 2.72 0 0 Z " fill="#BA8AAD" transform="translate(345,386)"/>
</svg>
